<?xml version="1.0" standalone="no"?>
<!DOCTYPE svg PUBLIC "-//W3C//DTD SVG 20010904//EN"
 "http://www.w3.org/TR/2001/REC-SVG-20010904/DTD/svg10.dtd">
<svg version="1.0" xmlns="http://www.w3.org/2000/svg"
 width="1463.000000pt" height="1463.000000pt" viewBox="0 0 1463.000000 1463.000000"
 preserveAspectRatio="xMidYMid meet">
<metadata>
Created by potrace 1.11, written by Peter Selinger 2001-2013
</metadata>
<g transform="translate(0.000000,1463.000000) scale(0.100000,-0.100000)"
fill="#000000" stroke="none">
<path d="M7079 14615 c-3 -2 -27 -6 -55 -9 -27 -2 -88 -12 -134 -20 -130 -24
-249 -44 -300 -51 -14 -2 -38 -6 -55 -9 -16 -3 -48 -8 -70 -11 -22 -4 -49 -9
-60 -12 -11 -3 -31 -7 -45 -9 -14 -1 -92 -17 -175 -34 -82 -17 -161 -33 -175
-36 -14 -3 -34 -8 -45 -11 -26 -9 -34 -11 -70 -18 -16 -3 -82 -20 -145 -36
-63 -16 -126 -32 -140 -35 -13 -3 -29 -9 -36 -15 -6 -5 -13 -7 -16 -4 -2 3
-49 -9 -104 -26 -54 -17 -106 -33 -114 -34 -8 -2 -15 -4 -15 -5 0 -1 -7 -3
-15 -5 -65 -15 -435 -146 -565 -200 -16 -6 -46 -18 -65 -25 -19 -7 -57 -23
-85 -35 -27 -12 -67 -28 -87 -36 -21 -7 -38 -17 -38 -22 0 -4 -4 -6 -8 -3 -4
2 -14 1 -21 -3 -10 -7 -10 -14 2 -37 15 -29 78 -129 94 -149 4 -6 24 -34 43
-63 19 -28 38 -52 43 -52 4 0 7 -5 7 -12 0 -6 8 -20 17 -30 14 -16 15 -21 4
-28 -18 -11 -43 -1 -34 14 4 6 -1 5 -11 -3 -15 -12 -19 -12 -30 5 -8 10 -24
30 -36 44 -12 14 -29 39 -37 55 -9 17 -22 37 -30 45 -8 8 -34 50 -59 93 -43
74 -47 78 -72 72 -15 -3 -28 -11 -30 -16 -2 -5 -10 -9 -17 -9 -13 0 -396 -188
-405 -199 -3 -3 -23 -15 -45 -25 -98 -48 -524 -307 -580 -353 -5 -4 -23 -17
-40 -27 -16 -11 -34 -23 -40 -28 -5 -4 -46 -34 -90 -65 -44 -31 -82 -60 -85
-63 -3 -3 -29 -23 -57 -45 -29 -21 -53 -42 -53 -46 0 -4 26 -28 58 -55 84 -71
133 -122 122 -129 -6 -4 -14 -4 -19 -1 -4 3 -8 -5 -7 -17 1 -22 -31 -47 -61
-47 -8 0 -11 -4 -8 -10 6 -10 -7 -14 -32 -11 -7 1 -13 -5 -13 -13 0 -10 -6
-13 -16 -9 -13 5 -13 7 -2 14 7 5 8 9 2 9 -17 0 -25 -12 -14 -25 7 -8 5 -12
-5 -12 -14 0 -18 20 -18 90 0 9 -4 17 -8 17 -5 0 -8 3 -7 8 1 4 -4 27 -11 52
-13 45 -19 68 -20 83 -3 33 -378 -311 -587 -539 -123 -132 -257 -293 -319
-379 -11 -16 -25 -33 -31 -40 -46 -46 -313 -462 -409 -637 -47 -86 -205 -403
-205 -412 0 -3 -12 -31 -26 -63 -34 -76 -45 -101 -84 -203 -18 -47 -39 -98
-46 -115 -20 -49 -125 -366 -130 -393 -3 -14 -9 -33 -14 -42 -5 -9 -11 -28
-14 -41 -2 -13 -19 -78 -36 -144 -18 -66 -34 -127 -35 -135 -2 -8 -4 -15 -5
-15 -1 0 -3 -7 -5 -15 -4 -23 -46 -213 -51 -232 -6 -27 -11 -49 -18 -88 -3
-19 -9 -46 -12 -60 -6 -30 -12 -64 -18 -110 -3 -19 -8 -46 -11 -60 -13 -66
-25 -135 -30 -180 -1 -14 -6 -49 -10 -79 -12 -91 -22 -173 -30 -266 -4 -38 -8
-81 -10 -95 -4 -23 -10 -104 -20 -256 -9 -133 -17 -674 -10 -674 4 0 33 16 65
35 32 19 63 35 69 35 6 0 11 3 11 8 0 4 23 18 50 31 28 14 50 29 50 33 0 4 3
7 8 6 4 -2 28 12 55 30 26 18 47 29 47 25 0 -4 4 -1 10 7 6 10 9 5 8 -18 -1
-18 -5 -35 -10 -38 -4 -3 -6 -9 -3 -14 3 -5 -14 -19 -37 -31 -24 -12 -45 -25
-48 -29 -3 -4 -21 -15 -40 -25 -19 -10 -37 -21 -40 -24 -3 -4 -36 -24 -75 -45
-104 -57 -124 -79 -120 -130 2 -22 7 -111 11 -196 7 -162 10 -225 13 -225 1 0
4 -31 6 -70 3 -38 7 -95 10 -125 3 -30 8 -77 10 -105 3 -27 7 -61 9 -75 7 -48
21 -164 32 -254 13 -113 8 -111 94 -54 41 27 82 55 90 62 9 7 21 11 28 8 7 -2
12 1 12 7 0 6 9 15 20 21 16 9 20 8 20 -5 0 -9 -4 -14 -9 -10 -5 3 -13 0 -17
-6 -4 -8 -3 -9 4 -5 6 4 16 -4 23 -16 12 -22 11 -22 -6 -8 -17 13 -18 13 -13
-1 5 -12 -8 -26 -45 -50 -29 -18 -54 -36 -57 -39 -3 -3 -30 -22 -60 -41 -42
-26 -55 -39 -54 -56 1 -13 2 -24 4 -25 1 -2 3 -12 4 -23 2 -11 6 -42 11 -70
13 -82 14 -89 19 -122 2 -18 7 -40 10 -50 4 -16 13 -62 21 -118 2 -11 4 -20 5
-20 1 0 3 -9 5 -20 19 -104 38 -195 42 -195 9 0 148 94 151 102 2 4 8 6 13 2
5 -3 9 0 9 5 0 6 9 11 21 11 13 0 18 4 13 13 -5 9 -4 9 6 0 15 -14 3 -36 -17
-29 -8 4 -11 1 -8 -5 4 -6 13 -8 20 -5 7 2 16 -2 19 -10 10 -25 7 -34 -8 -28
-8 3 -17 1 -21 -5 -3 -7 0 -8 9 -5 9 3 19 -3 26 -17 10 -19 10 -24 -4 -34 -9
-7 -16 -16 -16 -21 0 -4 5 -3 12 4 15 15 24 15 26 0 1 -22 11 -58 18 -71 5 -8
2 -7 -9 2 -15 12 -17 12 -11 -3 3 -9 11 -16 18 -16 7 0 6 -3 -2 -9 -11 -7 -10
-9 3 -14 14 -6 14 -9 0 -39 l-16 -33 21 25 c12 14 19 20 16 14 -3 -6 1 -21 7
-35 7 -13 12 -39 12 -56 0 -19 6 -35 14 -38 8 -3 11 -8 8 -12 -4 -3 -1 -13 6
-21 10 -13 9 -15 -4 -10 -11 4 -15 -1 -15 -17 0 -13 4 -21 8 -19 5 3 6 10 3
15 -4 5 -2 9 2 9 8 0 51 -111 46 -117 -1 -1 4 -15 12 -30 10 -19 11 -31 4 -39
-7 -9 -7 -18 1 -31 9 -16 10 -15 4 6 -4 14 -2 21 4 17 5 -3 12 -17 14 -30 4
-21 2 -24 -19 -20 -12 2 -23 0 -23 -5 0 -6 8 -8 18 -6 23 4 36 -4 46 -29 6
-18 5 -19 -12 -5 -10 8 -8 4 5 -8 13 -12 23 -34 23 -48 0 -14 4 -24 8 -21 8 5
12 -8 13 -47 0 -9 4 -15 10 -12 5 4 9 -1 9 -10 0 -9 -4 -14 -9 -10 -5 3 -13 1
-16 -5 -4 -6 -3 -10 2 -9 28 5 47 -17 57 -66 1 -5 9 -23 17 -40 9 -16 14 -38
11 -49 -2 -11 0 -16 7 -12 10 6 15 -6 12 -26 0 -5 3 -8 8 -8 5 0 8 -8 7 -17
-2 -9 6 -25 16 -35 18 -18 18 -21 3 -44 -16 -25 -10 -33 9 -11 6 7 10 10 8 8
-1 -2 4 -11 12 -20 8 -9 16 -25 18 -36 1 -11 9 -26 16 -33 7 -8 10 -17 7 -22
-3 -5 -1 -10 4 -12 5 -1 11 -10 13 -18 2 -8 11 -23 20 -34 10 -10 15 -22 13
-26 -3 -4 2 -13 10 -20 7 -6 11 -18 8 -26 -3 -7 2 -17 11 -20 9 -3 16 -10 16
-15 0 -4 -7 -6 -16 -2 -12 4 -15 2 -12 -8 3 -8 12 -14 21 -14 17 0 47 -45 47
-71 0 -8 -5 -14 -12 -14 -6 0 -8 -3 -5 -6 4 -4 13 -2 20 4 10 9 17 5 30 -17 9
-15 14 -31 11 -33 -3 -3 6 -18 20 -33 16 -17 23 -32 18 -39 -10 -14 -10 -36 1
-36 4 0 10 0 13 0 4 0 1 7 -6 15 -7 9 -8 15 -2 15 16 0 34 -55 33 -104 0 -13
3 -16 10 -9 8 8 7 17 0 32 -7 12 -8 21 -4 21 4 0 16 -16 25 -34 12 -26 14 -36
5 -45 -9 -9 -8 -11 6 -6 16 7 25 -9 10 -18 -5 -2 -3 -3 3 -1 12 2 28 -14 59
-61 23 -35 27 -53 14 -61 -5 -3 -9 0 -9 5 0 6 -4 11 -8 11 -5 0 -9 -7 -9 -15
0 -8 4 -12 9 -9 4 3 8 -1 8 -8 0 -8 5 -6 11 5 13 23 26 22 34 -3 3 -11 13 -27
22 -36 15 -14 14 -15 -3 -12 -12 2 -19 -3 -20 -15 -1 -11 0 -12 3 -3 3 12 9
13 29 4 19 -9 24 -18 22 -37 -3 -22 1 -25 20 -23 19 3 22 -1 22 -30 0 -19 -5
-39 -11 -45 -7 -7 -7 -13 -1 -17 6 -4 5 -29 -3 -68 -7 -35 -16 -90 -20 -123
-11 -96 -14 -128 -20 -165 -3 -19 -8 -71 -11 -114 -3 -44 -5 -82 -6 -85 -2
-20 12 -42 98 -158 80 -106 213 -273 234 -293 3 -3 20 -23 39 -45 130 -153
363 -393 531 -545 51 -47 114 -104 139 -127 52 -48 64 -53 52 -20 -5 12 -9 24
-9 27 0 3 -5 25 -12 50 -7 25 -13 52 -15 60 -2 8 -17 78 -34 155 -17 77 -33
156 -35 175 -2 19 -7 46 -10 60 -8 35 -26 218 -31 317 -3 47 -7 89 -11 94 -3
5 0 9 5 9 6 0 11 -6 12 -12 0 -7 2 -21 4 -30 2 -9 6 -54 9 -100 3 -46 8 -99
11 -118 2 -19 7 -55 10 -80 5 -39 46 -282 60 -350 19 -101 84 -320 94 -320 3
0 22 -14 41 -32 68 -61 388 -295 560 -409 244 -162 480 -306 855 -519 65 -36
159 -88 310 -170 33 -18 87 -47 120 -65 33 -18 95 -51 138 -74 169 -90 234
-125 282 -151 28 -15 88 -48 135 -72 98 -52 178 -96 234 -127 54 -31 54 -21
-2 22 -58 45 -82 65 -202 176 -216 200 -325 319 -543 591 -67 83 -246 344
-291 425 -9 17 -39 68 -67 115 -62 103 -74 131 -54 124 7 -3 11 -12 8 -20 -3
-10 0 -12 10 -8 15 5 65 -20 79 -40 4 -6 2 -19 -3 -30 -10 -20 -10 -20 5 -2 9
10 13 23 9 29 -4 6 -1 7 6 3 7 -5 10 -15 6 -23 -4 -13 -3 -14 10 -3 12 10 16
8 24 -11 4 -13 6 -31 4 -39 -4 -13 -3 -13 5 -1 6 8 8 21 5 30 -3 12 -2 12 7
-2 6 -9 8 -22 4 -29 -5 -7 -3 -8 5 -4 7 5 10 14 7 22 -3 8 -1 14 4 14 6 0 10
-4 10 -10 0 -5 8 -10 18 -11 13 0 12 -3 -5 -11 -26 -13 -30 -25 -8 -25 8 0 12
4 9 9 -7 12 34 10 57 -3 11 -6 18 -16 16 -23 -3 -7 -1 -19 5 -27 8 -11 9 -11
4 3 -3 10 -1 20 4 23 6 4 10 -1 10 -9 0 -9 5 -16 11 -16 5 0 7 4 4 10 -3 6 1
7 9 4 9 -3 16 -10 16 -16 0 -5 -4 -7 -9 -3 -5 3 -13 0 -17 -7 -4 -7 -4 -10 1
-6 13 12 34 -12 28 -30 -4 -13 -2 -12 10 3 16 21 13 40 -5 29 -7 -4 -8 -2 -4
4 8 14 36 4 36 -12 0 -7 -5 -17 -11 -23 -8 -8 -6 -14 8 -22 15 -7 20 -7 20 4
0 7 -7 11 -15 8 -12 -5 -12 -3 -1 15 11 17 15 18 26 6 8 -8 23 -14 33 -14 26
0 34 -17 13 -29 -24 -14 -7 -14 18 0 17 8 25 5 50 -22 17 -18 26 -24 22 -13
-6 16 -5 17 9 4 9 -8 13 -19 10 -25 -3 -5 3 -3 13 5 17 13 18 13 13 -1 -5 -13
-2 -16 13 -12 10 3 26 -1 35 -8 9 -8 22 -14 28 -15 6 0 25 -7 43 -14 27 -12
29 -15 16 -25 -13 -10 -13 -14 -3 -20 8 -5 11 -4 7 2 -4 6 2 13 13 16 11 3 20
1 20 -4 0 -5 9 -9 21 -9 11 0 17 -4 14 -10 -4 -6 5 -10 19 -10 20 0 26 -5 27
-22 0 -22 1 -22 9 -3 7 16 9 16 9 4 1 -21 21 -29 53 -23 23 5 23 5 3 -11 -20
-17 -20 -17 2 -11 15 5 25 1 32 -11 6 -10 11 -13 11 -8 0 6 -5 16 -12 23 -9 9
-9 12 -1 12 7 0 15 -5 18 -10 4 -6 11 -8 16 -5 5 4 12 -1 15 -9 3 -9 10 -14
14 -11 9 6 22 -23 16 -34 -3 -4 5 -7 17 -7 15 1 21 -4 19 -16 -1 -9 1 -19 6
-22 21 -12 3 38 -19 54 -13 10 -20 22 -16 26 4 4 7 3 7 -3 0 -10 36 -26 53
-24 4 1 5 -11 2 -26 -5 -26 -5 -26 4 -5 11 23 41 31 41 10 0 -6 3 -8 6 -5 11
11 45 -13 37 -26 -4 -7 0 -6 10 2 16 12 17 12 10 -5 -6 -17 -5 -17 10 -5 15
12 20 12 33 -5 9 -10 13 -13 9 -7 -7 14 20 8 42 -9 7 -6 17 -7 23 -3 5 3 13 0
16 -9 3 -8 12 -12 19 -10 7 3 24 0 37 -7 13 -7 34 -14 48 -15 14 -1 28 -2 33
-3 13 -2 7 -19 -9 -25 -11 -4 -15 -2 -11 8 6 15 -17 16 -30 1 -4 -4 -2 -5 5
-1 11 7 17 -6 13 -28 -1 -5 5 -4 13 4 9 7 16 9 16 4 0 -4 6 1 14 11 11 15 17
17 28 7 8 -6 24 -10 36 -7 12 2 24 0 27 -6 4 -5 15 -9 26 -9 10 0 19 -4 19 -8
0 -5 13 -8 29 -7 21 1 28 -2 24 -12 -4 -11 -9 -11 -22 -1 -9 7 -13 8 -9 4 4
-5 2 -16 -5 -25 -11 -14 -10 -14 6 -2 11 9 17 10 17 2 0 -6 9 -2 19 8 22 22
57 21 55 -1 -1 -8 5 -15 13 -15 8 0 12 6 9 14 -3 8 -2 12 3 9 9 -6 55 -14 134
-23 37 -4 45 -8 37 -18 -8 -10 -7 -15 2 -21 7 -4 10 -4 6 1 -12 13 12 35 38
35 52 0 23 48 -80 136 -26 23 -35 37 -30 50 4 13 3 15 -3 6 -5 -7 -17 -10 -27
-6 -14 5 -14 9 -4 22 11 13 10 14 -9 8 -16 -5 -25 -2 -33 14 -6 11 -14 19 -18
16 -4 -2 -22 11 -41 30 l-35 33 42 -4 c23 -2 42 0 42 5 0 4 -22 7 -50 5 -37
-2 -55 2 -71 16 -12 11 -20 21 -17 24 3 3 11 -1 18 -10 17 -20 36 -19 45 3 5
14 4 15 -6 4 -16 -15 -33 -16 -24 -2 4 6 1 9 -7 8 -7 -2 -12 3 -10 10 1 7 -5
15 -13 18 -8 3 -12 10 -9 15 3 5 -2 6 -12 2 -14 -5 -14 -8 6 -18 19 -10 20
-13 6 -24 -13 -11 -16 -11 -16 3 0 9 -4 17 -10 17 -5 1 -16 2 -22 3 -7 1 -12
8 -10 15 4 19 -19 43 -35 37 -15 -6 -43 3 -43 14 0 4 12 6 28 4 16 -2 19 -1 7
2 -11 4 -27 12 -36 20 -9 8 -18 12 -21 9 -8 -9 -58 17 -52 26 3 5 -2 9 -11 9
-9 0 -15 7 -13 16 2 10 -4 19 -12 21 -13 4 -13 3 0 -6 20 -14 4 -14 -21 0 -13
6 -18 16 -15 26 5 13 4 14 -8 4 -11 -9 -18 -7 -34 14 -11 14 -25 25 -31 25 -6
0 -11 5 -11 11 0 5 -5 7 -12 3 -7 -4 -8 -3 -4 4 4 7 2 12 -4 12 -6 0 -8 5 -4
13 5 8 2 8 -9 -2 -15 -12 -17 -11 -17 2 0 9 9 19 21 22 11 4 18 9 16 12 -3 2
-14 0 -25 -6 -14 -7 -27 -7 -46 2 -27 12 -37 33 -12 24 10 -4 13 -1 9 9 -4 11
-8 12 -19 3 -8 -7 -18 -9 -21 -5 -4 4 -1 11 7 16 8 6 10 10 4 10 -5 0 -15 -5
-22 -12 -9 -9 -12 -8 -12 4 0 9 8 18 18 20 14 3 13 5 -5 10 -13 3 -26 1 -30
-4 -4 -7 -1 -8 7 -3 9 6 11 4 5 -4 -5 -9 -10 -10 -18 -2 -7 7 -6 15 3 26 7 9
9 15 4 14 -5 -1 -12 0 -16 1 -15 5 -28 8 -41 9 -19 1 -58 36 -51 44 4 3 15 -4
25 -16 19 -22 19 -22 2 10 -10 18 -22 33 -26 33 -5 0 -6 -4 -3 -9 7 -10 -19
-23 -28 -14 -10 10 -7 35 4 28 6 -3 10 -1 10 4 0 14 -13 14 -28 -1 -9 -9 -12
-9 -12 -1 0 7 4 15 10 18 6 3 10 11 10 18 0 6 -7 2 -16 -9 -11 -13 -17 -15
-20 -6 -3 6 -10 10 -15 7 -5 -4 -6 1 -3 10 4 11 2 14 -9 9 -9 -3 -21 3 -29 15
-8 12 -17 20 -19 18 -2 -1 3 4 11 12 13 12 13 13 -4 7 -22 -7 -70 20 -61 34 4
6 2 10 -3 10 -18 0 -132 101 -132 117 0 7 -5 12 -11 11 -6 -2 -16 5 -22 15
-10 14 -9 20 3 28 12 9 12 10 -3 5 -20 -6 -67 20 -67 38 0 6 5 4 10 -4 5 -8
10 -10 10 -4 0 6 -7 17 -15 24 -17 14 -9 34 11 26 7 -3 16 -1 19 4 6 9 -42 6
-52 -3 -3 -4 0 -13 7 -22 7 -8 9 -15 4 -15 -20 0 -99 96 -98 117 1 12 -3 20
-8 17 -4 -3 -6 -10 -3 -15 4 -5 1 -9 -4 -9 -6 0 -11 8 -11 18 0 9 -9 31 -20
47 -11 17 -20 26 -20 20 1 -5 7 -19 15 -29 8 -11 15 -25 15 -30 0 -6 -6 -2
-12 9 -7 11 -22 28 -35 38 -13 10 -21 22 -18 27 3 5 -4 12 -15 15 -21 7 -21 7
1 26 12 10 18 19 13 19 -6 0 -15 -5 -22 -12 -9 -9 -16 -7 -32 7 -21 19 -27 45
-9 45 6 0 3 7 -5 16 -9 8 -14 19 -11 23 2 5 -9 7 -26 5 -25 -3 -29 -1 -21 9 8
9 8 17 0 27 -8 12 -9 12 -4 -2 3 -10 2 -18 -3 -18 -11 0 -85 90 -74 90 4 0 0
5 -9 11 -10 5 -23 20 -29 32 -9 20 -8 19 11 -3 l21 -25 -12 25 c-7 14 -12 28
-11 31 1 4 -7 5 -16 2 -25 -6 -46 40 -31 68 6 12 8 23 6 26 -3 2 -8 -5 -12
-16 -3 -12 -11 -21 -17 -21 -5 0 -8 7 -5 14 4 11 1 13 -10 9 -11 -4 -14 -3 -9
5 4 7 1 15 -8 18 -9 3 -16 13 -16 21 0 9 -8 22 -17 30 -10 8 -12 12 -5 8 6 -3
12 -1 12 4 0 6 -10 11 -22 11 -21 0 -21 0 -2 22 10 12 14 18 8 15 -7 -4 -15 0
-18 9 -4 9 -9 14 -13 11 -3 -4 0 -15 7 -24 8 -10 2 -7 -12 7 -23 23 -29 48 -7
35 5 -4 9 -1 9 5 0 7 -8 9 -22 4 -21 -6 -22 -5 -8 11 9 11 10 16 3 11 -8 -4
-13 -2 -13 4 0 6 -5 8 -12 4 -10 -6 -10 -4 -2 7 11 13 16 54 6 44 -3 -3 -12 1
-21 7 -10 8 -9 4 3 -10 11 -12 17 -25 14 -28 -10 -9 -53 70 -50 92 2 12 -2 25
-8 29 -9 5 -10 0 -6 -16 5 -19 3 -18 -10 6 -10 17 -17 32 -16 35 0 3 -7 14
-16 24 -13 15 -14 18 -2 12 8 -4 5 1 -8 13 -12 11 -18 22 -13 25 5 4 12 2 16
-4 3 -5 11 -10 18 -10 6 0 2 6 -8 14 -11 8 -26 11 -35 8 -13 -5 -13 -4 0 14 8
10 11 16 6 12 -11 -9 -36 16 -36 36 0 9 -5 16 -11 16 -5 0 -7 5 -3 11 4 8 9 8
13 1 4 -6 12 -7 20 -3 9 6 7 10 -9 14 -12 3 -19 10 -16 16 4 6 -5 13 -19 17
-14 3 -25 10 -25 16 0 5 4 6 10 3 6 -4 7 1 3 12 -6 16 -5 17 13 3 18 -14 18
-14 5 3 -10 13 -17 14 -26 7 -10 -8 -15 -5 -21 12 -4 13 -7 29 -5 37 1 8 -2
10 -10 6 -7 -5 -10 -3 -7 6 3 8 11 13 17 11 8 -1 7 4 -1 18 -7 11 -17 20 -22
20 -4 0 -3 -7 4 -15 9 -10 9 -15 1 -15 -10 0 -13 7 -10 26 0 4 -5 11 -13 15
-10 7 -10 9 0 9 6 0 12 4 12 10 0 5 -8 7 -17 4 -15 -5 -15 -3 2 11 20 17 20
17 -5 10 -20 -6 -23 -5 -12 6 15 16 16 29 1 29 -5 0 -7 -5 -4 -10 3 -5 1 -10
-5 -10 -6 0 -10 6 -8 13 1 6 -3 22 -10 35 -11 19 -10 23 3 28 8 3 15 11 15 16
0 6 -7 5 -15 -2 -18 -15 -22 -13 -27 15 -1 11 -7 23 -13 27 -5 4 -6 10 -2 14
8 8 37 -14 37 -28 0 -5 -5 -6 -12 -2 -7 5 -8 3 -3 -6 6 -10 11 -9 22 6 8 10
17 18 21 17 4 -1 8 0 10 2 1 1 -8 2 -20 1 -14 0 -22 4 -20 12 1 6 -1 11 -5 11
-23 -4 -43 2 -38 11 3 6 1 10 -5 10 -6 0 -9 4 -5 9 3 5 -2 17 -11 25 -9 9 -14
23 -11 31 3 7 1 16 -6 18 -9 3 -8 8 2 21 12 15 12 16 -5 10 -10 -4 -16 -3 -11
1 4 5 0 19 -9 32 -10 16 -12 28 -6 36 5 7 9 23 7 37 -3 34 -3 34 -20 20 -13
-10 -15 -9 -15 9 0 12 4 20 8 17 4 -2 8 3 9 13 1 9 -8 23 -20 30 -22 14 -22
14 -3 -8 11 -11 14 -21 8 -21 -14 0 -22 14 -28 47 l-5 28 28 -25 28 -25 -22
26 c-13 14 -23 32 -23 40 0 12 -2 12 -10 -1 -8 -12 -10 -11 -10 8 0 12 0 25 1
28 0 4 -5 11 -13 15 -10 7 -10 9 0 9 6 0 12 5 12 11 0 5 -5 7 -10 4 -6 -3 -10
-3 -11 2 0 4 -2 18 -5 31 -4 22 -3 22 20 7 22 -14 24 -15 22 -1 -1 9 -6 19
-11 23 -4 4 -5 2 -1 -4 4 -7 3 -13 -2 -13 -17 0 -22 13 -10 29 10 13 10 14 -2
4 -19 -18 -29 -16 -26 5 2 10 12 17 24 17 11 0 25 4 29 9 4 4 4 7 -2 6 -5 -1
-21 -2 -34 -1 -18 1 -22 5 -16 19 4 9 8 24 10 32 1 8 8 14 15 12 6 -1 9 2 5 8
-3 6 -11 8 -16 5 -15 -10 -10 7 9 29 15 18 15 19 0 8 -15 -12 -17 -11 -13 10
2 13 6 52 10 88 3 36 8 79 11 95 2 17 6 48 8 70 4 47 11 84 37 220 11 55 22
111 24 125 5 34 66 274 71 279 2 2 10 -2 19 -9 8 -7 15 -9 15 -5 0 5 10 0 23
-11 l22 -19 -19 22 c-10 13 -22 20 -26 18 -14 -9 -28 20 -19 40 4 11 8 15 8 8
1 -6 9 -14 19 -17 29 -10 92 -74 86 -89 -2 -8 3 -20 13 -28 17 -13 17 -13 4 4
-22 28 2 46 25 19 10 -12 21 -19 26 -16 4 3 6 -9 4 -26 -3 -30 -3 -30 20 -15
22 14 24 14 24 0 0 -9 4 -13 10 -10 14 9 12 -8 -2 -25 -7 -8 -2 -6 11 5 14 11
21 14 17 8 -5 -9 0 -13 14 -13 12 0 18 -4 15 -10 -3 -5 2 -10 12 -10 10 0 36
-14 57 -30 22 -17 46 -30 53 -30 7 0 13 -5 13 -10 0 -7 -6 -7 -20 0 -14 7 -20
7 -20 0 0 -5 6 -10 14 -10 7 0 19 -6 25 -14 7 -8 21 -12 31 -9 11 3 31 -2 45
-11 22 -14 24 -20 15 -39 -11 -21 -10 -21 4 -3 20 24 31 15 17 -12 -6 -12 -11
-24 -11 -29 1 -4 8 5 16 21 13 22 18 26 25 15 5 -8 9 -10 9 -5 0 5 8 2 18 -7
10 -10 22 -14 25 -10 4 3 7 1 7 -5 0 -7 5 -12 11 -12 7 0 18 -8 26 -17 9 -11
12 -12 7 -3 -5 12 -4 12 5 4 10 -9 10 -18 2 -35 l-12 -24 17 22 c13 19 19 20
40 11 13 -6 24 -16 24 -21 0 -5 -5 -5 -13 1 -8 7 -18 8 -27 1 -12 -8 -11 -9 5
-7 13 2 19 -2 17 -12 -3 -11 0 -11 15 3 17 15 21 15 41 1 12 -8 22 -12 22 -8
0 4 8 -2 18 -13 9 -11 23 -18 30 -16 6 3 12 0 12 -5 0 -13 -24 -9 -44 7 -11 9
-16 10 -16 2 0 -6 5 -11 11 -11 8 0 7 -6 -2 -18 -11 -14 -11 -15 1 -5 11 10
16 9 27 -5 12 -16 13 -15 6 3 -3 11 -3 17 2 13 4 -4 15 -2 23 5 13 10 14 9 7
-2 -6 -11 -4 -13 8 -8 11 4 17 1 17 -7 0 -8 12 -13 31 -13 19 0 35 -6 40 -16
5 -9 16 -14 23 -11 8 3 17 1 21 -5 4 -7 -1 -8 -12 -4 -10 3 -15 3 -11 -2 4 -4
20 -8 36 -9 16 -1 37 -8 47 -16 10 -8 20 -14 22 -12 6 4 18 2 32 -7 10 -7 11
-13 1 -32 -10 -21 -10 -22 3 -6 16 19 63 24 51 5 -5 -8 -2 -9 11 -5 9 4 23 3
29 -2 6 -5 13 -9 16 -9 3 0 18 -4 33 -7 23 -6 28 -12 23 -29 -5 -20 -4 -20 9
-2 12 16 17 17 30 6 8 -7 15 -10 15 -7 0 4 21 -3 46 -13 25 -11 51 -17 56 -13
7 3 8 1 4 -6 -4 -6 -3 -17 2 -24 5 -7 8 -20 6 -30 -1 -11 0 -16 4 -13 11 12
12 46 1 46 -5 0 -7 5 -3 11 4 6 9 7 13 2 3 -5 17 -9 31 -9 14 0 24 -6 23 -12
-2 -7 6 -10 20 -8 12 2 33 -1 47 -6 29 -11 85 -21 117 -20 13 0 20 -4 17 -10
-8 -12 38 13 48 27 4 6 6 16 3 24 -4 9 0 11 10 7 9 -3 13 -2 10 4 -3 6 -13 10
-21 10 -8 0 -12 4 -9 10 3 5 1 10 -4 10 -6 0 -11 7 -11 16 0 9 -5 12 -12 8 -7
-4 -10 -4 -6 1 4 4 -3 16 -15 26 -12 10 -18 18 -14 19 4 0 -4 12 -18 27 -28
30 -32 49 -12 56 9 4 9 6 0 6 -6 1 -15 -4 -18 -9 -7 -11 -60 46 -60 64 -1 6
-7 10 -15 8 -8 -1 -4 6 9 16 18 14 21 21 11 27 -8 5 -11 4 -7 -2 7 -11 -22
-28 -31 -18 -3 3 -2 5 1 5 4 0 -7 14 -25 30 -28 28 -29 36 -3 30 6 -1 7 2 3 6
-4 4 -3 13 3 20 7 8 6 14 -2 20 -7 4 -9 3 -6 -3 4 -6 0 -16 -8 -23 -13 -11
-21 -7 -50 24 -18 20 -34 39 -34 42 -1 2 -1 9 -1 14 0 6 -4 9 -9 8 -5 -2 -9 2
-9 7 -1 6 5 9 12 9 7 -1 13 4 13 11 0 8 -7 11 -15 7 -11 -4 -13 -1 -7 8 5 9 4
11 -4 6 -6 -4 -9 -12 -6 -17 4 -5 1 -9 -4 -9 -6 0 -11 5 -11 10 0 6 -11 20
-25 32 -14 12 -25 28 -25 35 0 8 -5 11 -10 8 -6 -4 -10 -3 -9 2 3 19 -2 34
-10 28 -21 -12 -20 15 1 29 12 9 18 16 12 16 -5 0 -15 -5 -22 -12 -9 -9 -15
-9 -24 0 -7 7 -9 12 -5 12 4 0 -6 13 -23 30 -31 31 -37 45 -20 55 6 3 10 11
10 18 0 6 -6 2 -14 -9 -8 -10 -18 -15 -22 -11 -5 4 -2 13 6 18 11 8 8 8 -10 3
-23 -6 -24 -6 -10 11 9 11 10 16 3 11 -7 -4 -13 -2 -13 3 0 6 -3 10 -7 9 -5
-2 -9 1 -10 5 -1 5 -12 17 -24 28 -12 10 -19 19 -14 19 4 0 -4 9 -19 21 -14
11 -26 26 -26 33 0 6 -9 18 -19 26 -11 7 -18 17 -16 21 3 4 -2 10 -11 13 -9 3
-14 12 -11 20 3 8 -2 16 -15 19 -11 3 -17 10 -14 16 4 5 -4 13 -16 17 l-21 6
22 13 c20 10 21 13 7 18 -10 4 -15 3 -11 -3 3 -6 -1 -10 -9 -10 -8 0 -18 5
-22 12 -4 6 -3 9 2 6 5 -3 15 0 22 8 10 11 8 13 -15 10 -16 -2 -22 -1 -15 1 6
2 12 8 12 13 0 5 -6 7 -14 4 -18 -7 -78 66 -72 88 2 10 -1 21 -6 25 -7 3 -8 1
-4 -5 4 -7 2 -12 -4 -12 -6 0 -10 10 -8 22 2 12 -3 23 -12 25 -12 4 -12 3 -1
-5 8 -6 9 -12 3 -16 -9 -5 -21 11 -18 25 0 3 -6 13 -14 22 -38 41 -38 43 -19
55 10 7 21 8 24 3 3 -5 -1 -12 -7 -15 -7 -2 -3 -4 9 -2 12 1 26 6 30 10 5 4 1
6 -7 4 -8 -2 -14 2 -13 9 2 12 -10 11 -41 -2 -14 -6 -23 -2 -37 16 -10 13 -16
25 -14 27 2 2 -5 13 -15 25 -18 19 -18 21 -2 34 16 13 15 14 -5 8 -12 -3 -25
-1 -29 6 -4 7 -3 9 2 6 6 -3 10 4 11 16 0 12 -1 16 -4 10 -6 -18 -20 -16 -27
3 -3 8 -2 12 4 9 6 -3 10 -1 10 4 0 6 -10 11 -22 11 -22 1 -22 2 6 24 20 17
25 26 16 31 -8 5 -11 4 -7 -1 3 -6 -3 -15 -13 -21 -15 -10 -22 -7 -44 27 -30
46 -32 52 -10 43 12 -4 15 -2 12 8 -3 8 -14 13 -26 11 -21 -3 -28 10 -23 47 2
7 -2 10 -7 7 -6 -3 -13 1 -16 10 -3 8 -2 13 3 10 5 -3 8 2 7 12 -1 12 5 16 19
14 16 -2 17 -1 5 7 -9 6 -19 6 -26 1 -6 -6 -15 -6 -19 -2 -5 4 -5 0 0 -8 5
-10 5 -11 -2 -5 -17 18 -33 64 -23 70 5 3 10 -5 12 -17 3 -22 28 -39 28 -18 0
6 -4 9 -9 5 -5 -3 -11 5 -13 17 -2 14 -9 22 -18 21 -8 -2 -21 6 -28 18 -12 18
-11 19 7 10 35 -19 37 -11 4 10 -32 21 -43 39 -23 39 6 0 15 12 20 26 6 15 19
38 31 53 11 14 48 64 81 111 53 73 172 225 188 240 3 3 28 32 56 65 127 149
179 204 436 463 127 127 194 188 199 180 4 -7 6 -15 3 -19 -2 -4 0 -10 6 -14
6 -4 8 -11 5 -16 -4 -5 -1 -9 4 -9 12 0 14 13 4 24 -8 7 -13 36 -7 36 2 0 11
-14 19 -30 9 -17 20 -28 25 -25 6 4 10 2 10 -4 0 -6 12 -22 28 -37 15 -15 20
-23 12 -20 -8 4 -6 1 4 -8 10 -8 22 -13 27 -11 4 3 10 -4 14 -15 3 -11 14 -20
22 -20 9 0 13 -3 10 -6 -4 -4 6 -18 21 -31 23 -20 25 -25 12 -33 -9 -6 -10
-10 -3 -10 6 0 15 5 18 10 4 6 12 4 21 -5 9 -8 13 -19 9 -25 -3 -5 0 -7 8 -4
8 3 18 0 23 -7 4 -7 3 -10 -3 -6 -5 3 -10 0 -10 -8 0 -10 5 -11 15 -6 11 6 22
1 39 -17 12 -14 23 -22 23 -18 0 4 7 1 15 -8 19 -18 20 -33 2 -17 -8 6 -17 8
-20 4 -4 -3 -7 -1 -7 5 0 16 -17 15 -23 -1 -3 -9 4 -13 22 -13 16 1 25 -4 23
-11 -1 -7 2 -13 8 -13 5 0 10 5 10 11 0 6 8 9 18 7 10 -2 17 -13 17 -27 0 -20
6 -25 30 -27 27 -3 28 -3 8 6 -13 5 -23 15 -22 22 0 10 2 10 6 1 2 -7 11 -13
19 -13 8 0 17 -7 20 -15 4 -8 10 -12 15 -9 5 3 9 0 9 -5 0 -6 9 -11 20 -11 18
0 25 -11 21 -33 -1 -5 3 -6 9 -2 6 3 7 12 3 18 -5 9 -3 9 8 0 13 -11 19 -13
37 -13 4 0 0 -5 -8 -10 -11 -7 -6 -8 18 -4 19 4 32 2 32 -4 0 -12 64 -4 68 9
2 5 8 6 14 3 7 -5 9 3 6 20 -4 18 -1 29 8 33 8 3 14 9 14 15 0 5 -4 7 -9 3 -5
-3 -12 -1 -16 5 -3 5 1 10 9 10 8 0 17 4 20 9 3 5 -2 8 -11 7 -9 0 -18 5 -21
13 -3 8 0 11 7 7 6 -4 11 -3 11 2 0 6 -7 12 -15 16 -8 3 -15 10 -15 16 0 6 4
9 8 6 4 -2 8 4 8 14 0 13 -4 16 -12 9 -13 -10 -28 16 -19 32 3 4 -2 20 -11 34
-9 14 -13 25 -9 25 4 0 -1 12 -11 28 -17 26 -17 27 1 12 17 -13 18 -13 10 0
-4 8 -13 21 -19 29 -5 7 -11 18 -12 25 -1 6 -9 30 -18 54 -8 23 -13 42 -10 42
2 0 -3 14 -11 30 -15 29 -15 31 7 40 22 10 22 10 -2 6 -21 -4 -26 -1 -27 17
-2 18 0 19 8 7 8 -12 9 -11 6 5 -2 11 -9 19 -15 17 -7 -1 -13 8 -14 20 -2 42
-3 47 -11 54 -13 13 -8 23 21 39 25 15 15 14 -23 -1 -8 -3 -15 -1 -15 5 0 6 5
11 10 11 6 0 10 5 10 11 0 6 -6 9 -13 6 -8 -3 -14 0 -14 6 0 7 -4 25 -8 41 -7
26 -6 28 16 21 19 -5 17 -2 -8 14 -34 21 -44 34 -19 25 8 -3 17 0 21 6 3 6 3
10 -2 9 -19 -3 -33 2 -33 12 0 6 7 8 16 5 8 -3 13 -2 9 3 -3 5 1 12 7 15 7 2
2 4 -11 3 -16 -1 -25 4 -26 16 -2 9 1 15 6 11 5 -3 6 -10 3 -16 -4 -7 -2 -8 4
-4 14 8 4 36 -12 36 -6 0 -13 11 -14 24 -1 18 6 27 29 36 16 7 28 15 25 17 -2
3 -15 -1 -28 -7 -14 -8 -3 9 28 41 114 120 142 149 206 220 118 132 198 232
267 335 87 129 206 368 203 408 -2 24 1 28 17 23 14 -3 18 -1 14 9 -3 8 3 17
13 21 11 3 22 11 25 16 4 5 18 2 33 -8 15 -10 26 -13 26 -6 0 6 -7 11 -15 11
-8 0 -15 5 -15 11 0 6 9 9 19 6 15 -4 18 -1 13 12 -5 14 -4 14 11 2 16 -12 17
-12 11 5 -4 10 -4 16 0 12 5 -4 18 2 29 13 19 17 23 18 32 5 10 -12 13 -11 25
7 12 20 12 21 -3 8 -10 -7 -17 -9 -17 -4 0 16 48 34 56 21 4 -7 3 -8 -4 -4 -7
4 -12 2 -12 -4 0 -15 25 -7 26 8 1 7 2 17 3 22 0 6 9 10 19 8 9 -2 16 2 15 9
-1 6 5 10 15 8 9 -1 23 3 31 9 11 8 13 8 7 -1 -4 -7 -2 -13 3 -13 6 0 11 -5
11 -11 0 -8 -6 -7 -17 2 -15 11 -15 10 1 -8 16 -20 17 -25 5 -40 -12 -16 -12
-17 2 -6 9 7 19 9 24 5 4 -4 2 3 -4 16 -8 15 -8 22 -1 22 6 0 8 4 5 10 -3 5
28 -11 70 -35 41 -25 75 -41 75 -37 0 4 6 0 13 -8 7 -8 17 -16 24 -17 6 -1 27
-13 46 -26 29 -20 33 -27 24 -38 -7 -7 -2 -5 11 5 19 16 22 17 22 3 0 -8 -6
-17 -12 -20 -7 -2 -9 -8 -5 -13 5 -5 13 -1 19 10 8 14 12 15 18 5 5 -8 2 -18
-8 -26 -16 -12 -15 -12 2 -6 13 4 17 3 12 -5 -4 -7 -2 -12 3 -12 6 0 10 -3 9
-7 -1 -9 12 -44 42 -105 11 -23 20 -47 20 -54 0 -7 3 -14 8 -16 4 -1 22 -32
41 -68 56 -105 202 -312 266 -375 11 -11 36 -38 54 -60 51 -61 222 -245 259
-279 31 -30 42 -56 22 -56 -5 0 -7 6 -4 14 3 8 0 17 -7 22 -8 4 -10 3 -5 -4
12 -20 -4 -34 -22 -20 -15 10 -15 10 -4 -2 7 -8 17 -16 23 -16 5 -1 14 -2 20
-3 5 0 8 -5 4 -11 -3 -5 -13 -7 -23 -4 -14 5 -14 4 -3 -4 14 -10 24 -55 11
-47 -4 2 -12 -8 -19 -23 -11 -26 -11 -26 5 -7 16 20 16 19 9 -5 -9 -31 -55
-113 -69 -122 -6 -4 -15 -4 -21 -1 -5 4 -6 2 -2 -2 18 -20 36 -11 53 26 22 50
29 44 10 -9 -9 -23 -13 -42 -9 -42 3 0 -1 -7 -8 -17 -8 -9 -13 -18 -11 -20 6
-9 1 -33 -9 -33 -5 0 -7 6 -3 13 4 7 3 8 -2 4 -5 -5 -9 -14 -9 -20 0 -7 -4
-12 -10 -12 -5 0 -9 4 -7 8 1 5 -3 5 -9 2 -7 -5 -8 -10 0 -18 7 -7 7 -17 -1
-31 -5 -12 4 -5 21 14 25 28 29 30 20 10 -7 -14 -14 -36 -15 -50 -2 -14 -7
-26 -13 -28 -5 -2 -6 -13 -4 -25 4 -16 3 -19 -6 -11 -6 6 -13 21 -16 34 -2 12
-7 25 -10 29 -9 8 2 -44 13 -66 9 -17 8 -29 -5 -63 -4 -8 -5 -18 -5 -22 1 -5
-3 -8 -9 -8 -5 0 -7 -5 -4 -10 4 -6 1 -17 -5 -25 -7 -8 -9 -15 -4 -15 4 0 -1
-7 -12 -16 -10 -8 -13 -12 -5 -8 9 4 12 2 9 -7 -3 -8 -16 -13 -29 -12 -13 1
-17 -1 -7 -3 9 -3 19 -12 22 -21 5 -12 1 -14 -14 -10 -11 3 -18 1 -14 -4 3 -5
0 -9 -6 -9 -6 0 -9 -4 -6 -9 8 -12 -29 -43 -39 -34 -4 5 -5 2 -1 -5 6 -9 13
-8 31 5 14 10 25 24 25 31 0 17 17 15 17 -3 0 -8 -4 -15 -7 -15 -7 0 -20 -49
-19 -66 1 -9 -35 -33 -43 -28 -4 2 -9 0 -12 -5 -7 -11 13 -9 32 3 13 8 13 6
-3 -74 -3 -17 3 -34 19 -53 13 -14 26 -24 29 -21 3 3 15 1 26 -6 17 -8 21 -8
19 2 -2 7 5 12 15 12 9 -1 17 2 17 7 0 5 3 8 8 7 4 -1 17 3 30 10 12 7 22 9
22 5 0 -4 4 -3 8 4 4 6 14 13 22 15 15 3 32 15 53 35 9 8 16 7 30 -4 10 -10
17 -12 17 -5 0 7 -6 12 -12 12 -7 0 3 14 22 31 19 17 36 26 38 20 2 -6 8 -11
13 -11 6 0 7 5 4 11 -4 6 7 23 24 38 17 15 47 42 67 60 23 22 42 31 55 28 10
-3 22 0 26 5 3 6 2 8 -3 5 -6 -3 -16 -2 -24 4 -13 7 -12 9 3 9 9 0 17 5 17 10
0 6 8 10 18 10 14 0 15 -2 2 -10 -9 -6 -10 -10 -3 -10 16 0 26 17 13 25 -6 4
14 30 45 61 30 30 55 59 55 63 0 5 7 12 16 15 8 3 12 2 9 -3 -3 -5 0 -13 6
-17 8 -4 9 -3 5 4 -4 7 -3 12 2 12 6 0 8 8 6 18 -3 10 3 22 15 29 17 11 38 -7
207 -177 175 -174 303 -309 400 -420 21 -25 44 -50 49 -56 38 -43 102 -121
114 -138 8 -12 17 -23 21 -26 3 -3 32 -41 65 -85 33 -44 62 -82 65 -85 15 -15
63 -96 63 -107 0 -7 4 -10 8 -7 4 2 13 -5 19 -16 6 -11 8 -20 4 -20 -3 0 -1
-6 5 -14 8 -9 8 -15 1 -18 -5 -1 -12 -14 -15 -27 -2 -14 -10 -29 -16 -35 -9
-8 -10 -8 -5 1 4 7 0 25 -9 40 -9 16 -13 19 -9 8 11 -33 13 -86 3 -79 -5 3 -9
-4 -9 -15 0 -11 -5 -23 -10 -26 -6 -4 -7 -11 -4 -17 5 -7 1 -9 -9 -5 -9 3 -18
0 -21 -9 -3 -9 -10 -13 -15 -10 -5 3 -7 -4 -3 -16 4 -16 2 -19 -8 -13 -9 5
-11 4 -6 -3 11 -18 15 -15 27 14 5 15 12 24 15 21 9 -8 -43 -90 -66 -105 -11
-7 -20 -17 -20 -24 0 -7 6 -3 14 8 8 10 18 16 22 11 4 -4 2 -7 -4 -7 -7 0 -12
-6 -12 -14 0 -8 -7 -17 -16 -20 -8 -3 -12 -10 -9 -16 3 -5 1 -10 -4 -10 -6 0
-10 -3 -9 -7 4 -12 -35 -73 -46 -73 -5 0 -1 9 9 20 10 11 14 20 9 20 -5 0 -1
7 9 14 15 12 15 15 2 26 -8 7 -12 17 -8 23 3 6 1 7 -6 3 -9 -6 -9 -11 0 -22 9
-11 9 -17 -1 -29 -7 -8 -9 -15 -4 -15 4 0 -2 -9 -14 -20 -12 -12 -22 -26 -22
-33 0 -8 3 -8 9 2 6 9 11 10 15 2 4 -6 0 -14 -9 -18 -20 -7 -35 13 -28 36 4
13 3 14 -5 2 -8 -11 -6 -23 4 -42 12 -24 12 -30 -1 -43 -8 -8 -15 -19 -15 -25
0 -5 -13 -25 -30 -43 -16 -18 -30 -28 -30 -22 0 5 5 15 12 22 9 9 9 12 0 12
-7 0 -12 -5 -12 -11 0 -5 -5 -7 -11 -3 -8 5 -8 1 0 -14 15 -28 15 -27 -15 -47
-26 -16 -26 -16 -20 7 3 12 3 17 0 10 -3 -6 -10 -9 -16 -6 -6 4 -5 -3 2 -15 9
-18 14 -20 26 -10 10 8 14 8 14 0 0 -6 -4 -11 -9 -11 -5 0 -13 -9 -16 -20 -6
-20 -25 -19 -25 1 0 6 5 7 12 3 7 -4 8 -3 4 5 -4 6 -12 9 -17 6 -5 -4 -9 -1
-9 6 0 7 -2 10 -5 7 -3 -3 -1 -17 6 -31 10 -22 8 -29 -10 -48 -11 -13 -21 -27
-21 -31 0 -5 -5 -6 -11 -2 -8 4 -7 9 2 14 7 5 14 16 15 24 1 9 -2 14 -7 10 -5
-3 -6 -10 -3 -16 5 -8 1 -9 -12 -4 -10 4 -15 4 -11 0 4 -4 1 -14 -6 -22 -8
-10 -8 -13 -1 -9 7 4 15 0 18 -9 4 -10 2 -13 -6 -8 -8 5 -9 2 -5 -9 4 -11 1
-17 -8 -17 -8 0 -15 -6 -15 -14 0 -8 -11 -23 -25 -34 -13 -11 -21 -22 -18 -26
3 -3 1 -6 -5 -6 -7 0 -12 -8 -12 -17 0 -15 -2 -14 -15 3 -14 18 -14 17 -5 -8
7 -20 6 -27 -2 -25 -7 1 -12 -3 -13 -9 0 -10 -18 -33 -97 -127 -10 -11 -18
-23 -18 -26 0 -3 -16 -23 -35 -43 -19 -20 -35 -40 -35 -44 0 -4 -20 -31 -45
-60 -25 -28 -45 -56 -45 -61 0 -13 -32 -13 -49 1 -12 9 -12 8 -1 -11 8 -12 19
-19 25 -16 5 3 -2 -6 -17 -21 -15 -14 -33 -26 -40 -26 -9 0 -9 -3 2 -11 12 -8
8 -9 -15 -7 -18 2 -30 -2 -30 -9 0 -6 -3 -15 -7 -18 -4 -4 -3 -16 3 -26 8 -15
6 -19 -6 -19 -10 0 -13 -5 -9 -12 4 -7 -2 -4 -14 6 -12 11 -25 16 -29 13 -3
-4 -1 -7 6 -7 7 0 9 -5 5 -12 -4 -7 -3 -8 4 -4 14 8 15 -3 3 -23 -6 -9 -16
-11 -27 -7 -10 4 -15 4 -11 0 4 -4 1 -14 -6 -22 -11 -13 -9 -14 13 -2 23 12
24 12 11 -3 -15 -19 -41 -23 -41 -7 0 6 -4 10 -8 10 -5 0 -9 -7 -9 -15 0 -8 4
-12 8 -9 4 2 10 0 14 -6 3 -5 1 -10 -5 -10 -6 0 -9 -4 -6 -8 3 -5 -6 -15 -19
-22 -14 -7 -25 -18 -25 -24 0 -6 -16 -34 -36 -61 -20 -28 -34 -43 -31 -34 3 9
1 22 -5 30 -8 11 -9 10 -4 -3 3 -10 1 -18 -3 -18 -5 0 -7 -9 -4 -20 3 -11 1
-20 -4 -20 -6 0 -18 -18 -28 -40 -10 -22 -22 -40 -27 -40 -12 0 12 -35 35 -49
11 -7 16 -8 12 -2 -3 6 1 11 10 11 10 0 14 -5 9 -12 -5 -10 -4 -10 6 -1 7 6
19 9 26 6 8 -3 14 1 15 8 0 8 4 5 9 -6 7 -17 9 -17 9 -2 1 9 7 17 15 17 8 0
23 3 33 6 16 6 16 5 -2 -11 -13 -11 -8 -10 17 4 20 12 50 23 67 24 17 1 31 6
31 11 0 5 9 1 20 -9 11 -10 20 -13 20 -7 0 7 -4 12 -10 12 -5 0 -10 5 -10 12
0 6 3 8 7 5 3 -4 12 -2 20 4 7 6 13 8 13 5 0 -4 9 -2 19 3 21 12 47 -8 33 -25
-4 -4 1 -2 11 5 18 14 24 26 8 16 -16 -9 -20 9 -6 22 11 10 15 8 21 -9 5 -18
8 -19 15 -6 5 9 19 14 35 12 14 -1 23 0 20 3 -3 4 8 14 24 24 17 11 30 23 30
29 0 5 4 10 10 10 5 0 7 -7 4 -15 -4 -8 -1 -15 6 -15 6 0 8 5 5 10 -3 6 -1 10
5 10 6 0 8 5 4 12 -5 8 -2 9 9 5 10 -3 17 -2 17 2 0 5 9 7 20 4 15 -4 20 0 20
13 0 13 3 15 11 7 6 -6 18 -9 27 -6 9 4 13 2 9 -4 -3 -5 0 -10 8 -10 11 0 12
3 3 14 -6 8 -18 11 -27 8 -11 -4 -13 -3 -6 4 6 6 21 12 34 14 12 2 27 10 31
18 8 12 11 12 22 0 7 -8 8 -11 2 -8 -7 4 -17 0 -24 -8 -7 -8 -17 -12 -23 -8
-6 4 -7 1 -3 -6 6 -9 13 -8 28 6 11 10 23 18 27 18 3 0 5 5 5 12 -1 6 7 14 17
16 11 3 17 1 14 -3 -3 -5 0 -12 6 -16 8 -4 9 -3 5 4 -4 7 -2 12 3 12 6 0 10 4
9 9 -2 5 2 10 7 11 6 1 15 6 22 12 7 5 18 6 25 2 15 -10 42 -15 34 -7 -3 3 5
14 17 25 18 16 16 16 -10 -2 -18 -12 -33 -16 -33 -10 0 12 48 34 69 31 7 -1
10 2 7 7 -6 10 22 27 38 23 4 -1 14 3 22 10 8 6 20 9 29 6 8 -4 17 -1 21 5 4
7 3 8 -4 4 -7 -4 -12 -2 -12 3 0 6 6 11 13 11 8 0 24 9 37 20 22 19 40 19 40
-1 0 -5 -5 -9 -11 -9 -5 0 -7 5 -3 12 4 7 3 8 -5 4 -16 -10 -4 -25 18 -23 16
1 18 5 9 21 -8 15 -7 22 8 33 21 16 34 17 34 3 0 -6 -3 -9 -7 -9 -27 4 -33 -1
-21 -21 7 -11 17 -20 22 -20 6 0 5 5 -2 12 -18 18 -15 27 8 23 12 -2 20 1 19
8 -3 25 1 38 11 32 6 -4 8 -10 6 -14 -3 -4 1 -8 9 -8 10 0 12 4 5 12 -5 6 -5
16 -1 24 6 10 11 9 24 -3 24 -24 33 -19 11 6 -10 12 -13 18 -6 14 6 -4 12 -2
12 4 0 6 5 8 10 5 6 -4 8 -11 4 -16 -3 -5 0 -8 8 -7 7 2 12 -3 10 -10 -1 -8 2
-11 8 -7 6 4 4 15 -6 30 -10 15 -12 25 -5 30 6 3 11 3 11 -2 0 -4 5 0 11 10
12 21 31 23 23 2 -4 -8 -1 -15 6 -15 6 0 8 4 5 10 -3 5 4 11 17 11 17 1 18 3
6 6 -22 6 -23 19 -2 27 8 3 12 2 9 -4 -3 -6 -1 -10 4 -10 6 0 11 6 11 13 0 8
11 20 25 27 14 7 25 17 25 22 0 4 9 8 20 8 11 0 33 13 48 30 16 16 33 30 38
30 5 0 27 15 49 34 22 19 43 32 47 30 4 -3 8 0 8 6 0 6 5 8 10 5 6 -4 7 -11 4
-17 -4 -6 4 -3 18 8 14 10 24 21 22 23 -2 2 -10 -2 -19 -9 -8 -7 -15 -8 -15
-2 0 20 28 34 47 23 15 -7 19 -6 19 9 0 14 -3 16 -13 8 -7 -6 -13 -7 -13 -2 0
5 12 18 27 28 14 11 23 15 20 9 -4 -6 -3 -13 2 -15 5 -1 21 -48 36 -103 14
-55 28 -109 31 -120 3 -11 7 -29 9 -40 1 -11 10 -54 19 -95 9 -41 19 -90 22
-109 3 -18 7 -42 9 -51 6 -30 19 -114 21 -132 1 -10 2 -19 4 -20 1 -2 3 -16 4
-33 2 -16 7 -68 11 -115 5 -47 9 -115 9 -152 1 -38 4 -68 8 -68 4 0 4 -10 -1
-22 -4 -13 -6 -29 -3 -37 3 -10 0 -11 -9 -5 -11 6 -12 5 -2 -7 11 -13 9 -18
-12 -29 -13 -7 -22 -17 -19 -22 3 -5 12 -1 20 9 7 10 14 13 14 6 0 -6 -4 -14
-10 -18 -5 -3 -7 -12 -3 -20 4 -13 -5 -19 -27 -17 -3 0 -5 -10 -5 -23 0 -13 3
-21 8 -18 4 2 7 -3 7 -11 0 -8 -5 -18 -12 -22 -7 -5 -9 -2 -4 7 4 8 1 6 -7 -3
-8 -10 -18 -14 -22 -10 -5 4 -1 -5 8 -21 10 -15 13 -27 7 -27 -6 0 -8 -11 -6
-24 3 -18 1 -23 -10 -19 -8 3 -21 2 -29 -1 -13 -5 -14 -10 -4 -27 10 -19 9
-21 -5 -16 -10 4 -15 3 -11 -3 4 -6 12 -9 18 -8 7 2 14 1 16 -2 6 -7 -22 -70
-31 -70 -4 0 -5 -7 -2 -15 8 -20 -6 -19 -23 3 -13 15 -13 15 -3 -6 11 -22 10
-23 -12 -17 -18 5 -20 4 -8 -4 8 -6 24 -8 35 -5 16 4 17 3 5 -5 -8 -6 -11 -11
-7 -11 5 0 1 -10 -7 -22 -9 -12 -16 -31 -16 -41 0 -10 -5 -15 -10 -12 -6 4 -7
11 -4 17 4 7 2 8 -4 4 -9 -5 -9 -13 -1 -28 8 -15 8 -19 0 -14 -6 4 -11 0 -11
-9 0 -9 5 -13 10 -10 6 3 0 -11 -12 -32 -13 -20 -23 -42 -23 -48 -1 -5 -10
-28 -20 -50 -10 -22 -19 -42 -20 -45 0 -3 -6 -15 -14 -28 -7 -13 -14 -33 -16
-44 -3 -11 -7 -23 -11 -27 -4 -3 -5 1 -2 10 4 11 -1 15 -17 15 -13 0 -21 -4
-18 -10 4 -6 -1 -7 -13 -2 -15 6 -16 5 -7 -5 10 -10 16 -9 29 2 15 12 16 12 9
-10 -5 -18 -4 -22 6 -15 7 4 3 -6 -9 -23 -12 -17 -22 -37 -22 -45 0 -7 -7 -21
-14 -31 -13 -16 -14 -16 -30 5 -16 22 -16 22 -2 -6 12 -26 12 -34 -3 -63 -10
-21 -21 -31 -31 -27 -11 4 -12 2 -3 -7 16 -16 5 -38 -17 -32 -10 3 -21 0 -24
-6 -4 -6 -1 -9 7 -5 8 3 18 0 23 -7 4 -8 3 -10 -4 -5 -8 5 -12 0 -12 -13 0
-12 -5 -21 -11 -21 -5 0 -8 4 -5 9 3 4 -4 17 -17 27 l-22 19 18 -21 c17 -21
17 -22 0 -29 -10 -5 -21 -7 -25 -7 -5 1 -8 -2 -8 -8 0 -13 13 -13 27 1 24 24
34 -2 13 -32 -12 -16 -19 -29 -16 -29 3 0 -4 -12 -16 -26 -13 -14 -24 -20 -26
-15 -2 6 -8 11 -14 11 -6 0 -3 -9 7 -20 10 -11 13 -20 7 -20 -6 0 -14 -9 -17
-20 -8 -26 -22 -26 -30 1 -4 11 -9 18 -12 15 -3 -3 1 -16 9 -28 12 -19 13 -26
3 -35 -7 -6 -16 -9 -21 -5 -4 4 -4 1 1 -6 4 -8 2 -25 -5 -38 -10 -18 -19 -22
-39 -19 -16 3 -20 2 -11 -2 18 -9 25 -33 9 -33 -5 0 -7 -5 -4 -10 8 -13 -17
-8 -27 5 -5 6 -5 -5 -2 -22 4 -21 3 -33 -4 -33 -6 0 -9 6 -6 14 3 8 1 17 -4
20 -5 3 -8 -6 -6 -19 1 -14 -2 -27 -7 -31 -5 -3 -7 -9 -4 -14 3 -5 -4 -14 -15
-20 -11 -6 -18 -15 -15 -20 3 -6 0 -7 -8 -4 -8 3 -18 0 -23 -7 -4 -8 -3 -10 4
-5 19 12 14 -5 -14 -41 -14 -18 -30 -33 -37 -33 -7 0 -3 7 7 15 14 11 16 15 5
15 -8 0 -20 -9 -27 -21 -8 -12 -9 -18 -3 -15 19 12 20 -10 0 -24 -10 -8 -19
-20 -19 -26 0 -7 -14 -24 -31 -38 -17 -14 -27 -26 -23 -26 4 0 -1 -9 -11 -20
-14 -16 -21 -17 -32 -8 -11 9 -11 13 -1 19 9 6 9 9 1 9 -17 0 -29 -23 -15 -28
13 -4 17 -32 5 -33 -23 -2 -46 -8 -51 -14 -4 -3 6 -4 22 -1 18 3 26 2 20 -4
-5 -5 -20 -11 -33 -13 -26 -4 -42 -24 -34 -44 3 -7 0 -13 -6 -13 -6 0 -11 5
-11 10 0 6 -5 10 -11 10 -8 0 -8 -4 1 -15 10 -12 8 -20 -9 -41 -12 -15 -21
-23 -21 -18 0 5 -9 -5 -19 -23 -11 -17 -33 -42 -50 -54 -17 -12 -28 -26 -25
-31 4 -5 -9 -2 -27 7 -23 11 -28 12 -16 2 24 -20 22 -27 -27 -74 -48 -46 -59
-52 -49 -27 4 11 -3 8 -19 -7 -13 -13 -22 -28 -20 -32 2 -5 10 0 18 10 7 10
14 13 14 7 0 -15 -25 -36 -33 -27 -4 3 -13 1 -20 -5 -8 -7 -16 -9 -20 -6 -3 3
-3 -2 -1 -13 4 -13 -10 -31 -47 -63 -28 -25 -61 -54 -73 -65 -11 -11 -24 -19
-28 -18 -5 2 -8 -2 -8 -7 0 -6 -4 -10 -10 -10 -5 0 -7 8 -3 18 7 18 5 17 -17
-11 -7 -10 -9 -17 -4 -16 24 4 23 -3 -3 -25 -18 -15 -38 -23 -56 -21 -15 2
-25 0 -22 -5 3 -4 -2 -11 -11 -14 -9 -4 -14 -9 -10 -13 3 -3 15 2 26 12 11 10
20 15 20 11 0 -5 -17 -23 -37 -42 -32 -28 -40 -31 -49 -19 -16 21 -27 18 -15
-4 9 -15 3 -24 -29 -50 -21 -17 -43 -31 -48 -31 -6 0 -13 -8 -17 -17 -6 -17
-7 -17 -19 0 -7 9 -17 17 -21 17 -4 0 -2 -7 5 -15 15 -19 3 -38 -21 -32 -13 4
-23 -2 -30 -16 -9 -20 -9 -20 4 -5 8 10 17 15 20 11 7 -7 -55 -53 -72 -53 -5
0 -13 -5 -17 -12 -4 -7 -3 -8 4 -4 7 4 12 5 12 2 0 -3 -10 -10 -21 -17 -17 -9
-20 -8 -14 3 4 7 -5 -1 -21 -18 -48 -51 -79 -67 -104 -54 -12 6 -24 9 -27 7
-2 -3 5 -8 16 -12 22 -7 27 -20 12 -30 -6 -3 -14 2 -19 11 -6 11 -11 13 -16 5
-4 -6 -2 -11 3 -11 17 0 13 -27 -5 -34 -23 -9 -46 -7 -40 2 3 5 -1 9 -8 9 -15
0 -15 -21 -1 -34 4 -4 5 -2 0 6 -5 10 -4 12 4 7 6 -4 9 -12 5 -17 -3 -5 -9 -7
-14 -4 -5 3 -13 -3 -19 -12 -5 -10 -13 -14 -17 -10 -4 4 -2 13 4 19 15 15 15
28 1 28 -5 0 -8 -4 -4 -9 3 -5 0 -13 -6 -16 -5 -4 -8 -13 -5 -20 7 -19 -20
-39 -41 -31 -14 6 -15 5 -6 -5 10 -10 9 -15 -5 -25 -9 -8 -21 -14 -26 -14 -6
0 -2 6 9 13 14 11 15 16 5 22 -8 5 -11 4 -7 -2 4 -6 0 -14 -9 -17 -9 -3 -14
-12 -11 -20 9 -22 -5 -27 -25 -9 -10 9 -18 11 -18 5 0 -6 6 -13 13 -15 9 -4 8
-8 -3 -16 -8 -6 -19 -11 -25 -11 -5 0 -3 5 5 10 8 5 10 10 4 10 -18 0 -24 -13
-13 -27 7 -8 8 -13 1 -13 -13 0 -33 25 -27 34 3 3 -1 1 -8 -5 -9 -9 -9 -12 1
-16 17 -7 15 -28 -5 -44 -15 -13 -15 -12 -3 11 12 23 12 24 -3 11 -10 -7 -17
-19 -17 -25 0 -7 -11 -23 -25 -36 -23 -22 -25 -22 -26 -4 -1 15 -3 13 -8 -6
-4 -14 -13 -24 -19 -23 -7 2 -11 -2 -9 -8 1 -6 -4 -14 -12 -17 -10 -3 -12 0
-8 12 4 11 3 15 -4 11 -6 -4 -8 -14 -5 -22 3 -8 -4 -24 -17 -37 -29 -29 -35
-66 -10 -67 56 -5 127 4 135 16 5 6 8 5 8 -3 0 -7 5 -10 11 -6 7 4 24 8 40 10
43 5 53 8 62 19 5 6 7 1 4 -10 -3 -17 1 -21 29 -20 17 0 30 4 27 8 -3 5 -14 7
-24 4 -11 -3 -19 0 -19 7 0 6 14 13 32 14 18 2 35 6 38 10 3 4 14 8 25 10 16
2 17 1 5 -7 -11 -8 -11 -11 -2 -11 7 0 15 7 18 15 4 8 10 15 16 15 5 0 6 -4 3
-10 -3 -5 -1 -10 4 -10 6 0 11 6 11 13 0 7 14 14 32 15 17 2 37 7 43 12 7 6
24 11 39 12 14 1 26 6 26 11 0 4 6 5 13 0 21 -13 36 -12 30 3 -9 23 7 16 18
-8 l10 -23 -5 23 c-4 22 4 31 36 36 7 1 18 5 23 8 6 4 17 3 25 -3 20 -12 30
-11 30 2 0 5 -4 8 -9 4 -5 -3 -13 0 -17 7 -4 7 -4 10 1 6 4 -4 14 -3 22 3 7 6
13 7 13 3 0 -5 10 -15 23 -23 21 -13 22 -13 4 6 -9 11 -14 23 -10 26 11 11 23
8 20 -5 -1 -7 8 -13 20 -14 15 -1 20 3 16 13 -5 12 -7 12 -14 2 -4 -8 -10 -11
-13 -8 -11 11 13 32 38 32 14 0 23 3 20 8 -3 5 -3 9 1 9 3 0 10 -10 16 -22 8
-20 9 -19 3 7 -3 16 -2 27 2 23 4 -4 13 -3 21 3 7 6 13 8 13 3 0 -5 4 -3 9 4
4 7 27 15 50 17 23 1 45 6 49 10 4 5 1 5 -5 1 -7 -4 -13 -3 -13 2 0 5 8 12 18
16 9 3 24 9 32 12 9 4 7 1 -3 -8 -18 -13 -17 -14 2 -14 11 0 18 3 15 7 -7 12
28 41 42 35 8 -3 14 -1 14 5 0 6 4 8 10 4 5 -3 7 -12 4 -20 -5 -11 -11 -12
-25 -4 -22 11 -21 12 -24 -18 -1 -12 1 -20 6 -17 4 2 5 12 2 20 -5 14 -3 15
15 5 18 -9 23 -8 31 8 6 10 7 21 3 25 -16 17 23 23 47 8 14 -10 22 -12 18 -4
-7 11 4 17 26 13 4 0 7 4 7 10 0 6 -7 8 -15 5 -8 -3 -22 -9 -30 -12 -8 -3 -15
-2 -15 4 0 11 47 27 69 23 8 -1 10 2 6 9 -5 9 0 8 16 -1 21 -11 23 -11 11 3
-10 13 -10 17 3 22 8 3 22 3 30 -1 9 -3 15 -2 14 3 -4 21 2 24 24 13 19 -11
20 -10 9 3 -10 13 -10 17 3 22 11 4 14 2 8 -6 -4 -7 5 -3 21 9 15 12 34 19 42
16 8 -3 14 -2 12 3 -2 5 2 9 7 9 6 0 9 -6 9 -13 -2 -10 1 -10 13 0 10 8 11 14
4 16 -19 6 -12 17 21 31 28 13 32 12 45 -4 7 -11 13 -14 13 -9 0 6 -5 15 -10
20 -8 8 -6 15 5 24 8 7 15 9 15 5 0 -5 8 -1 18 7 42 37 161 89 205 91 26 1 41
4 35 8 -6 4 -25 5 -42 3 -23 -2 -27 -1 -16 6 8 5 20 10 27 10 7 0 24 11 39 25
15 14 34 23 41 20 7 -3 21 -8 31 -11 16 -6 16 -6 -1 7 -17 13 -16 15 12 32 19
11 32 14 36 7 4 -6 11 -8 16 -5 5 4 9 3 9 -1 0 -9 -70 -138 -78 -144 -4 -3
-16 -21 -26 -40 -11 -19 -58 -93 -105 -163 -47 -71 -90 -136 -96 -145 -31 -48
-240 -309 -319 -396 -88 -98 -209 -219 -326 -326 -51 -47 -100 -92 -109 -100
-9 -8 -44 -37 -79 -64 -34 -27 -62 -51 -62 -53 0 -2 24 9 53 25 62 35 273 149
375 203 72 39 173 93 287 154 33 18 96 52 140 75 109 58 169 92 310 170 66 37
143 79 170 94 28 15 57 31 65 36 8 5 121 72 250 149 293 175 292 174 305 184
5 4 75 51 155 103 133 88 283 191 320 221 8 6 56 42 105 79 179 134 216 167
215 194 -1 3 9 32 20 64 11 33 18 62 15 64 -3 3 -1 10 4 16 7 9 20 59 37 141
1 6 6 35 13 65 6 30 13 71 16 90 3 19 8 49 11 65 6 34 8 46 19 129 10 79 13
109 20 186 9 117 17 157 25 135 4 -11 5 -24 1 -30 -3 -5 -6 -35 -7 -65 0 -30
-4 -82 -7 -115 -4 -33 -9 -89 -13 -125 -3 -36 -7 -67 -9 -70 -2 -3 -6 -26 -10
-50 -3 -25 -11 -70 -17 -100 -6 -30 -12 -59 -13 -65 -1 -5 -3 -13 -5 -17 -3
-10 -4 -13 -13 -58 -4 -19 -10 -46 -13 -60 -3 -14 -7 -36 -10 -48 -3 -13 -11
-43 -19 -65 -8 -23 -15 -53 -15 -66 l0 -23 23 21 c12 11 33 30 47 42 172 143
525 501 691 699 195 234 347 439 334 451 -2 3 -6 43 -9 89 -3 47 -8 95 -10
107 -3 12 -8 53 -11 90 -4 37 -9 77 -12 88 -2 11 -6 34 -8 50 -13 100 -16 123
-21 153 -4 20 -1 38 7 49 10 12 10 14 2 9 -7 -4 -13 -2 -13 3 0 6 7 11 15 11
8 0 14 3 13 7 -4 14 22 53 35 53 8 0 8 -3 -1 -9 -11 -6 -10 -10 4 -15 9 -3 19
-4 22 -1 3 3 -1 5 -8 5 -7 0 -10 3 -7 7 4 3 1 13 -6 21 -9 13 -9 14 1 8 6 -4
13 -2 13 3 1 6 2 14 3 19 2 10 48 76 59 83 5 3 8 9 8 13 -1 5 4 8 12 5 22 -7
36 -5 30 4 -4 6 0 8 9 5 9 -4 15 0 15 8 0 12 -4 12 -23 -1 -18 -12 -23 -12
-27 -1 -3 8 2 21 12 30 14 13 20 13 31 3 12 -10 12 -9 2 4 -10 13 -10 23 -1
43 7 14 16 23 20 20 5 -3 9 5 9 16 0 13 8 24 20 27 11 3 20 10 20 15 0 5 -5 6
-10 3 -12 -8 40 88 62 115 9 10 13 22 10 26 -4 4 -1 3 7 -1 11 -6 13 -4 8 8
-7 20 13 23 31 5 9 -9 12 -9 12 -1 0 7 -9 15 -20 18 -11 4 -18 11 -14 16 3 6
12 5 22 -3 13 -11 14 -11 4 8 -10 18 -8 23 12 32 30 13 55 10 67 -9 5 -9 9
-10 9 -2 0 25 -43 38 -74 21 -18 -10 -19 -9 -9 4 7 8 9 19 5 23 -4 5 -1 5 6 1
6 -4 12 -3 12 2 0 5 10 14 23 21 22 11 22 11 -3 5 -22 -6 -23 -5 -12 9 7 8 23
13 35 11 22 -5 22 -5 -1 5 -19 9 -21 13 -10 30 10 16 15 18 27 8 12 -10 13 -9
4 7 -9 16 -4 33 25 90 20 39 38 73 39 75 1 2 11 -2 20 -10 15 -11 15 -10 -1 9
-12 14 -15 22 -6 22 7 0 10 7 6 15 -3 8 0 15 6 15 6 0 9 3 5 6 -3 3 6 27 19
54 13 26 24 53 24 59 0 6 5 11 11 11 6 0 9 7 5 15 -4 12 0 14 19 9 15 -4 25
-2 25 5 0 6 -6 8 -14 5 -8 -3 -17 1 -22 8 -4 7 -4 10 0 6 4 -3 15 1 25 10 15
15 15 18 1 29 -10 8 -11 12 -3 13 7 0 10 7 7 15 -4 10 0 15 12 15 16 0 17 -2
4 -10 -8 -5 -10 -10 -4 -10 6 0 17 7 24 16 8 8 9 14 4 13 -21 -4 -35 2 -29 11
4 6 9 8 13 6 4 -2 8 7 9 20 5 51 6 53 24 44 12 -7 21 -5 30 8 12 15 12 16 -2
5 -12 -10 -18 -10 -27 -1 -17 17 -15 26 15 54 15 14 28 32 29 40 1 9 -1 13 -4
9 -4 -4 -7 -11 -7 -16 0 -5 -3 -9 -7 -9 -9 0 -9 0 -1 28 3 14 12 18 31 16 17
-2 20 -1 7 2 -35 10 -41 24 -10 25 17 1 23 3 13 6 -10 2 -18 9 -18 15 0 5 7 7
16 4 8 -3 13 -2 9 3 -3 5 1 12 7 15 7 3 2 3 -12 -1 -22 -5 -23 -4 -12 10 8 9
19 14 26 11 8 -3 16 2 20 12 5 14 4 15 -8 5 -8 -7 -17 -8 -20 -3 -7 12 4 52
16 52 5 0 6 5 3 10 -4 6 -1 17 5 25 7 8 9 15 5 15 -4 0 0 11 9 25 9 14 14 30
11 35 -3 5 9 8 29 6 26 -3 33 0 32 12 -2 9 -9 18 -17 20 -12 3 -12 2 0 -6 14
-10 5 -19 -19 -18 -8 1 -15 10 -15 21 0 14 6 19 20 17 19 -2 19 -2 2 9 -14 8
-16 14 -6 25 6 8 8 14 5 14 -4 0 -2 8 3 19 6 10 13 33 16 52 6 33 22 52 37 43
4 -3 5 2 2 10 -3 9 -2 16 3 16 13 0 14 42 2 57 -6 7 -7 22 -3 35 8 24 11 33
13 46 0 5 11 14 24 21 21 11 21 11 0 6 -18 -5 -21 -2 -18 17 1 13 7 34 12 46
8 21 10 22 22 8 8 -9 20 -16 27 -16 8 0 14 -3 14 -7 0 -5 23 -21 50 -36 28
-16 50 -31 50 -35 0 -7 52 -34 55 -29 3 4 40 182 50 242 3 17 12 62 20 100 8
39 17 90 20 115 3 25 7 52 10 60 2 8 6 31 9 50 3 19 8 46 11 59 4 23 -21 61
-40 61 -7 0 -75 49 -90 64 -5 6 -23 18 -40 26 -42 21 -79 56 -67 64 6 3 8 15
5 26 -5 18 -3 19 18 8 14 -7 38 -23 56 -35 17 -13 34 -23 37 -23 4 0 34 -20
69 -45 l62 -46 7 33 c8 34 15 86 24 173 3 28 7 61 9 75 3 14 7 50 10 80 3 30
8 71 11 90 3 19 7 55 8 80 2 25 6 79 10 120 11 113 14 152 21 310 4 80 8 166
9 192 4 57 -14 77 -119 134 -38 21 -72 40 -75 44 -3 3 -22 14 -43 25 -20 11
-35 25 -33 32 3 7 -1 10 -8 7 -12 -5 -86 32 -86 43 0 2 6 1 13 -2 6 -4 4 0 -6
8 -16 14 -16 15 4 20 19 5 20 8 9 21 -17 22 2 20 31 -3 13 -10 38 -26 54 -35
17 -9 48 -28 70 -41 22 -13 49 -28 61 -34 12 -5 44 -23 71 -40 28 -17 54 -31
58 -31 7 0 1 475 -10 658 -8 156 -23 346 -31 392 -2 14 -7 56 -10 95 -3 38 -7
72 -9 76 -3 3 -7 33 -10 65 -4 32 -8 70 -11 84 -2 14 -6 43 -9 65 -3 22 -10
63 -15 90 -5 28 -12 68 -16 90 -11 71 -12 79 -24 130 -5 28 -12 59 -14 70 -2
11 -9 47 -16 80 -8 33 -13 66 -11 73 1 6 -3 12 -9 12 -6 0 -9 4 -6 9 4 5 -1
36 -10 68 -8 32 -17 69 -20 81 -4 22 -11 48 -48 185 -32 115 -67 228 -110 357
-25 74 -48 142 -50 150 -2 8 -13 36 -25 63 -11 26 -20 48 -20 50 1 8 -69 180
-127 312 -44 102 -174 361 -223 448 -11 20 -31 54 -42 75 -12 20 -44 74 -73
120 -28 45 -56 90 -61 100 -12 20 -106 162 -118 177 -4 5 -42 57 -84 115 -42
58 -79 107 -83 110 -3 3 -13 14 -21 26 -83 121 -359 421 -566 614 -89 84 -274
243 -277 239 -2 -4 -26 -85 -42 -144 -3 -11 -6 -28 -6 -37 1 -10 -7 -18 -16
-19 -11 0 -12 -3 -4 -6 11 -4 18 -53 7 -53 -17 0 -53 25 -48 33 4 6 0 8 -10 4
-10 -3 -17 -2 -17 4 0 6 -4 8 -8 5 -5 -3 -19 4 -30 15 -12 11 -22 17 -22 14 0
-4 -13 3 -29 14 -15 11 -32 17 -37 13 -4 -4 0 6 10 22 22 35 55 68 129 130 31
27 57 52 57 56 0 5 -51 46 -112 91 -62 45 -115 85 -118 89 -5 6 -312 210 -355
237 -124 75 -155 94 -185 111 -19 10 -51 29 -70 40 -67 40 -165 93 -220 119
-30 15 -56 31 -58 35 -2 4 -7 8 -12 8 -7 0 -253 114 -302 141 -23 12 -48 12
-48 0 0 -27 -151 -258 -206 -315 -6 -6 -11 -15 -11 -19 -1 -5 -5 -12 -9 -15
-4 -4 -3 -1 1 7 6 11 4 13 -8 8 -10 -3 -17 -2 -17 3 0 6 -7 10 -15 10 -22 0
-18 15 8 26 12 6 16 9 10 7 -7 -1 -13 2 -13 7 0 6 5 10 12 10 6 0 9 3 5 6 -3
4 -1 12 6 19 7 7 21 25 32 41 11 15 25 32 31 38 6 6 12 16 14 21 2 6 22 39 45
75 65 102 69 111 54 121 -8 5 -17 9 -21 9 -4 0 -31 11 -60 24 -29 13 -96 40
-148 61 -52 20 -104 41 -115 46 -29 13 -207 79 -225 84 -8 2 -54 18 -102 35
-72 25 -254 84 -293 94 -5 2 -17 5 -25 8 -16 6 -124 37 -150 42 -40 10 -107
28 -120 33 -8 3 -22 7 -30 9 -14 3 -75 18 -180 44 -34 9 -56 13 -115 25 -16 3
-46 10 -65 15 -43 11 -234 50 -275 55 -16 3 -43 7 -58 11 -16 3 -38 7 -50 9
-12 2 -62 10 -112 19 -49 8 -106 17 -125 20 -19 3 -46 7 -60 10 -14 4 -45 9
-70 12 -25 3 -54 8 -65 11 -80 23 -277 35 -305 18 -5 -3 -7 -43 -4 -93 5 -88
9 -189 19 -454 4 -130 3 -147 -10 -141 -9 3 -15 2 -14 -3 4 -21 -2 -25 -18
-13 -14 12 -16 12 -11 -2 4 -9 1 -16 -8 -16 -7 0 -11 4 -8 9 7 11 -38 -13 -47
-25 -10 -14 -16 -13 -36 6 -11 9 -22 14 -25 11 -4 -3 -16 0 -29 7 -19 10 -20
13 -8 23 8 6 15 20 17 31 2 14 -3 10 -17 -12 -20 -32 -41 -44 -41 -23 0 6 5
10 10 10 6 0 10 5 10 11 0 5 -5 7 -10 4 -7 -4 -9 38 -5 127 3 73 7 185 10 248
2 63 6 154 9 202 3 52 1 90 -5 93 -11 8 -125 16 -130 10z m-2464 -1085 c3 -5
-1 -10 -10 -10 -9 0 -13 5 -10 10 3 6 8 10 10 10 2 0 7 -4 10 -10z m-1515
-734 c0 -2 -6 -9 -14 -15 -11 -9 -16 -9 -22 0 -4 8 -3 9 4 5 7 -4 12 -2 12 3
0 6 5 11 10 11 6 0 10 -2 10 -4z m10507 -4930 c-3 -7 0 -19 6 -25 8 -8 8 -11
0 -11 -7 0 -15 5 -18 10 -7 12 0 40 11 40 3 0 4 -6 1 -14z m-127 -2306 c0 -17
-23 -60 -33 -60 -5 0 -4 7 3 15 7 8 9 15 5 15 -4 0 -2 6 4 13 6 8 8 17 4 20
-3 4 -1 7 5 7 7 0 12 -4 12 -10z m-9030 -530 c0 -5 -2 -10 -4 -10 -3 0 -8 5
-11 10 -3 6 -1 10 4 10 6 0 11 -4 11 -10z m240 -160 c0 -5 -2 -10 -4 -10 -3 0
-8 5 -11 10 -3 6 -1 10 4 10 6 0 11 -4 11 -10z m4229 -76 c-6 -8 -16 -14 -21
-14 -7 0 -6 5 1 13 6 8 8 17 4 21 -4 4 0 4 10 0 14 -5 15 -9 6 -20z m4281 -58
c0 -3 -4 -8 -10 -11 -5 -3 -10 -1 -10 4 0 6 5 11 10 11 6 0 10 -2 10 -4z
m-4050 -261 c0 -2 -9 -9 -20 -15 -12 -6 -20 -7 -20 -1 0 5 8 12 18 14 9 3 18
5 20 6 1 0 2 -1 2 -4z m-55 -35 c-4 -6 -13 -9 -20 -6 -7 2 -18 -1 -24 -7 -9
-9 -11 -8 -5 6 3 10 13 16 20 13 7 -3 16 -1 20 5 3 6 8 8 11 5 3 -2 2 -10 -2
-16z m1435 -570 c0 -5 -4 -10 -10 -10 -5 0 -10 5 -10 10 0 6 5 10 10 10 6 0
10 -4 10 -10z m-6372 -76 c0 -15 -4 -22 -10 -16 -5 5 -6 16 -2 25 9 23 12 21
12 -9z m6333 -19 c1 -17 -18 -17 -25 0 -4 11 -1 15 10 13 8 -2 15 -7 15 -13z
m-6077 -620 c3 -8 1 -15 -3 -15 -5 0 -11 7 -15 15 -3 8 -1 15 3 15 5 0 11 -7
15 -15z m566 -856 c0 -5 0 -11 0 -14 0 -3 -3 -5 -7 -4 -5 1 -7 5 -5 10 1 5 -2
9 -8 9 -5 0 -10 4 -10 10 0 5 7 7 15 4 8 -4 15 -10 15 -15z m4576 -144 c-8 -7
-12 -16 -8 -20 4 -5 2 -5 -5 -1 -16 9 -6 33 14 33 14 0 14 -1 -1 -12z m-354
-367 c-7 -7 -12 -8 -12 -2 0 14 12 26 19 19 2 -3 -1 -11 -7 -17z m-3407 -277
c3 -5 1 -12 -5 -16 -5 -3 -10 1 -10 9 0 18 6 21 15 7z m4156 -13 c-9 -25 -41
-34 -41 -11 0 9 6 13 14 10 8 -3 17 1 20 9 3 8 8 14 10 14 3 0 2 -10 -3 -22z
m-3746 -308 c3 -5 1 -10 -4 -10 -6 0 -11 5 -11 10 0 6 2 10 4 10 3 0 8 -4 11
-10z m70 -50 c3 -5 2 -10 -4 -10 -5 0 -13 5 -16 10 -3 6 -2 10 4 10 5 0 13 -4
16 -10z m-670 -110 c3 -5 2 -10 -4 -10 -5 0 -13 5 -16 10 -3 6 -2 10 4 10 5 0
13 -4 16 -10z"/>
<path d="M7387 13949 c7 -9 10 -19 6 -22 -3 -4 -1 -7 5 -7 17 0 15 16 -5 31
-16 12 -17 12 -6 -2z"/>
<path d="M7335 13930 c-7 -12 19 -24 37 -17 7 3 3 6 -10 6 -13 1 -20 5 -17 11
3 6 4 10 1 10 -3 0 -8 -5 -11 -10z"/>
<path d="M7267 13906 c4 -5 -1 -7 -11 -3 -11 4 -15 3 -11 -4 4 -6 13 -8 21 -5
19 7 45 -4 38 -16 -4 -6 4 -4 17 2 32 17 32 17 14 24 -11 4 -14 2 -9 -6 5 -8
2 -9 -10 -5 -10 4 -20 7 -22 7 -3 0 -3 4 1 9 3 6 -3 9 -14 8 -11 0 -17 -5 -14
-11z"/>
<path d="M4633 13555 c0 -8 4 -12 9 -9 5 3 6 10 3 15 -9 13 -12 11 -12 -6z"/>
<path d="M10015 13550 c-3 -5 -1 -10 4 -10 6 0 11 5 11 10 0 6 -2 10 -4 10 -3
0 -8 -4 -11 -10z"/>
<path d="M2990 12830 c0 -5 5 -10 11 -10 5 0 7 5 4 10 -3 6 -8 10 -11 10 -2 0
-4 -4 -4 -10z"/>
<path d="M11615 12801 c-3 -5 -2 -12 3 -15 5 -3 9 1 9 9 0 17 -3 19 -12 6z"/>
<path d="M3025 12789 c-4 -6 -5 -12 -2 -15 2 -3 7 2 10 11 7 17 1 20 -8 4z"/>
<path d="M11580 12791 c0 -5 7 -14 15 -21 10 -9 15 -9 15 -1 0 6 -5 11 -11 11
-5 0 -7 5 -4 10 3 6 1 10 -4 10 -6 0 -11 -4 -11 -9z"/>
<path d="M11640 12763 c5 -2 8 -9 5 -13 -3 -5 -1 -11 4 -14 5 -4 8 2 7 11 -2
9 -8 18 -15 19 -6 1 -7 0 -1 -3z"/>
<path d="M11677 12763 c-12 -12 -7 -21 16 -26 20 -5 20 -5 5 7 -10 7 -15 16
-11 19 3 4 4 7 1 7 -2 0 -8 -3 -11 -7z"/>
<path d="M2953 12750 c-13 -5 -23 -11 -23 -14 0 -7 40 6 46 15 6 10 6 10 -23
-1z"/>
<path d="M2998 12753 c7 -3 16 -2 19 1 4 3 -2 6 -13 5 -11 0 -14 -3 -6 -6z"/>
<path d="M7290 9105 c-7 -8 -16 -12 -21 -9 -5 3 -9 0 -9 -5 0 -15 13 -14 29 2
12 10 13 9 7 -7 -5 -15 -4 -17 8 -7 11 9 15 9 19 -1 4 -10 6 -10 6 0 1 7 -6
15 -14 18 -8 4 -12 10 -9 15 9 15 -2 10 -16 -6z"/>
<path d="M7371 9095 c0 -5 4 -19 8 -29 7 -19 8 -19 13 2 4 12 2 20 -2 17 -5
-3 -11 1 -13 7 -3 7 -5 9 -6 3z"/>
<path d="M7406 9065 c-9 -26 -7 -32 5 -12 6 10 9 21 6 23 -2 3 -7 -2 -11 -11z"/>
<path d="M7239 9043 c-13 -16 -12 -17 4 -4 9 7 17 15 17 17 0 8 -8 3 -21 -13z"/>
<path d="M7430 9049 c0 -5 5 -7 10 -4 6 3 10 8 10 11 0 2 -4 4 -10 4 -5 0 -10
-5 -10 -11z"/>
<path d="M7150 9035 c-9 -11 -9 -15 -1 -15 7 0 10 -4 7 -8 -3 -5 1 -9 9 -9 11
0 12 4 4 13 -6 7 -8 18 -4 24 9 15 -1 12 -15 -5z"/>
<path d="M7201 9027 c-13 -21 -12 -21 5 -5 10 10 16 20 13 22 -3 3 -11 -5 -18
-17z"/>
<path d="M7455 9041 c-3 -5 -1 -12 5 -16 5 -3 10 -3 10 1 0 3 8 0 18 -7 14
-11 13 -10 -2 9 -22 25 -23 25 -31 13z"/>
<path d="M7335 9031 c-3 -5 -2 -12 3 -15 5 -3 9 1 9 9 0 17 -3 19 -12 6z"/>
<path d="M7390 9016 c0 -2 7 -7 16 -10 8 -3 12 -2 9 4 -6 10 -25 14 -25 6z"/>
<path d="M7133 8992 c2 -12 6 -24 10 -28 3 -4 4 4 2 16 -6 30 -16 40 -12 12z"/>
<path d="M7547 8995 c3 -8 9 -12 14 -9 12 7 11 11 -5 17 -10 4 -13 1 -9 -8z"/>
<path d="M7436 8983 c-6 -14 -5 -15 5 -6 7 7 10 15 7 18 -3 3 -9 -2 -12 -12z"/>
<path d="M7490 8989 c0 -5 5 -7 10 -4 6 3 10 8 10 11 0 2 -4 4 -10 4 -5 0 -10
-5 -10 -11z"/>
<path d="M7514 8972 c4 -3 14 -7 22 -8 9 -1 13 0 10 4 -4 3 -14 7 -22 8 -9 1
-13 0 -10 -4z"/>
<path d="M7570 8969 c0 -5 5 -7 10 -4 6 3 10 8 10 11 0 2 -4 4 -10 4 -5 0 -10
-5 -10 -11z"/>
<path d="M7020 8960 c-8 -5 -11 -13 -6 -17 5 -4 11 -2 13 5 4 9 8 10 18 2 10
-8 15 -8 21 1 4 8 3 9 -4 5 -7 -4 -12 -2 -12 3 0 13 -10 14 -30 1z"/>
<path d="M7590 8955 c-7 -9 -8 -15 -2 -15 5 0 12 7 16 15 3 8 4 15 2 15 -2 0
-9 -7 -16 -15z"/>
<path d="M6970 8926 c0 -2 8 -10 18 -17 15 -13 16 -12 3 4 -13 16 -21 21 -21
13z"/>
<path d="M6246 7871 c-3 -5 0 -11 7 -14 8 -3 14 1 14 9 0 16 -13 19 -21 5z"/>
<path d="M6285 7870 c-3 -6 1 -7 9 -4 18 7 21 14 7 14 -6 0 -13 -4 -16 -10z"/>
<path d="M1023 7839 c3 -9 1 -21 -5 -27 -6 -6 -5 -12 4 -17 7 -5 10 -5 6 0 -4
4 -4 13 2 19 5 7 5 17 -2 26 -8 13 -9 12 -5 -1z"/>
<path d="M8334 7836 c1 -8 5 -18 8 -22 4 -3 5 1 4 10 -1 8 -5 18 -8 22 -4 3
-5 -1 -4 -10z"/>
<path d="M995 7830 c-3 -5 -1 -10 4 -10 6 0 11 5 11 10 0 6 -2 10 -4 10 -3 0
-8 -4 -11 -10z"/>
<path d="M6275 7830 c3 -5 8 -10 11 -10 2 0 4 5 4 10 0 6 -5 10 -11 10 -5 0
-7 -4 -4 -10z"/>
<path d="M8356 7805 c-3 -9 -6 -22 -5 -28 0 -7 5 -1 10 12 5 13 8 26 5 28 -2
2 -6 -3 -10 -12z"/>
<path d="M8306 7748 c3 -5 10 -6 15 -3 13 9 11 12 -6 12 -8 0 -12 -4 -9 -9z"/>
<path d="M6296 7728 c3 -4 11 -5 19 -1 21 7 19 12 -4 10 -11 0 -18 -5 -15 -9z"/>
<path d="M8324 7728 c-3 -4 5 -5 17 -3 30 6 36 14 9 12 -12 -1 -24 -5 -26 -9z"/>
<path d="M8318 7703 c7 -3 16 -2 19 1 4 3 -2 6 -13 5 -11 0 -14 -3 -6 -6z"/>
<path d="M6286 7678 c3 -5 10 -6 15 -3 13 9 11 12 -6 12 -8 0 -12 -4 -9 -9z"/>
<path d="M6317 7673 c-4 -3 -7 -11 -7 -17 0 -6 5 -5 12 2 6 6 9 14 7 17 -3 3
-9 2 -12 -2z"/>
<path d="M8316 7598 c3 -5 10 -6 15 -3 13 9 11 12 -6 12 -8 0 -12 -4 -9 -9z"/>
<path d="M8296 7573 c-6 -14 -5 -15 5 -6 7 7 10 15 7 18 -3 3 -9 -2 -12 -12z"/>
<path d="M6323 7562 c17 -18 51 -27 41 -10 -3 5 -10 6 -15 3 -5 -4 -12 1 -15
9 -3 9 -11 16 -17 16 -5 0 -3 -8 6 -18z"/>
<path d="M6327 7525 c3 -8 9 -12 14 -9 12 7 11 11 -5 17 -10 4 -13 1 -9 -8z"/>
<path d="M8281 7461 c-8 -5 -9 -11 -3 -15 5 -3 12 1 16 9 6 17 6 18 -13 6z"/>
<path d="M6366 7398 c3 -4 15 -13 27 -18 20 -10 20 -10 5 3 -10 8 -16 16 -13
19 3 2 -2 5 -10 5 -8 0 -12 -4 -9 -9z"/>
<path d="M8239 7393 c-1 -5 -1 -12 0 -17 1 -5 -6 -5 -16 -2 -14 6 -15 4 -6 -4
8 -9 16 -9 30 -1 10 6 13 11 5 11 -7 0 -10 5 -7 10 3 6 4 10 1 10 -3 0 -7 -3
-7 -7z"/>
<path d="M8885 7370 c-3 -6 1 -7 9 -4 18 7 21 14 7 14 -6 0 -13 -4 -16 -10z"/>
<path d="M6380 7360 c8 -5 22 -9 30 -9 10 0 8 3 -5 9 -27 12 -43 12 -25 0z"/>
<path d="M8246 7345 c-3 -9 -10 -13 -16 -10 -6 3 -7 -1 -4 -10 6 -14 9 -13 21
5 8 12 13 23 10 26 -2 3 -7 -2 -11 -11z"/>
<path d="M5746 7308 c6 -9 44 -6 44 3 0 4 -11 6 -24 5 -13 0 -22 -4 -20 -8z"/>
<path d="M6390 7311 c0 -10 19 -25 25 -20 1 2 -3 10 -11 17 -8 7 -14 8 -14 3z"/>
<path d="M6430 7310 c0 -5 5 -10 11 -10 5 0 7 5 4 10 -3 6 -8 10 -11 10 -2 0
-4 -4 -4 -10z"/>
<path d="M8829 7318 c-6 -21 -5 -37 2 -32 5 3 6 10 3 16 -5 8 -1 9 10 5 10 -4
15 -3 11 3 -5 9 -24 14 -26 8z"/>
<path d="M8880 7310 c-9 -6 -10 -10 -3 -10 6 0 15 5 18 10 8 12 4 12 -15 0z"/>
<path d="M5800 7289 c-12 -9 -12 -10 4 -5 14 5 17 3 12 -11 -6 -15 -5 -16 5
-5 18 17 -1 35 -21 21z"/>
<path d="M8219 7293 c-1 -5 -2 -15 -3 -23 0 -8 -6 -14 -11 -13 -6 1 -11 -7
-12 -18 -2 -16 2 -14 22 9 13 15 19 29 14 30 -5 2 -7 8 -3 13 3 5 3 9 0 9 -3
0 -7 -3 -7 -7z"/>
<path d="M6405 7270 c-3 -5 -2 -10 4 -10 5 0 13 5 16 10 3 6 2 10 -4 10 -5 0
-13 -4 -16 -10z"/>
<path d="M8785 7260 c-10 -11 -15 -20 -11 -20 11 0 39 30 34 36 -3 2 -13 -5
-23 -16z"/>
<path d="M5830 7250 c0 -6 7 -10 15 -10 8 0 15 2 15 4 0 2 -7 6 -15 10 -8 3
-15 1 -15 -4z"/>
<path d="M6430 7253 c0 -5 5 -15 10 -23 7 -12 9 -10 7 8 -1 19 -17 33 -17 15z"/>
<path d="M5860 7230 c-8 -5 -10 -10 -5 -10 6 0 17 5 25 10 8 5 11 10 5 10 -5
0 -17 -5 -25 -10z"/>
<path d="M8753 7219 c-2 -23 3 -25 10 -4 4 8 3 16 -1 19 -4 3 -9 -4 -9 -15z"/>
<path d="M5880 7209 c-13 -9 -13 -10 0 -6 8 2 20 -3 27 -12 6 -9 13 -14 16
-11 2 3 -3 13 -12 22 -12 12 -21 14 -31 7z"/>
<path d="M6435 7200 c-3 -6 1 -7 9 -4 18 7 21 14 7 14 -6 0 -13 -4 -16 -10z"/>
<path d="M6440 7160 c6 -11 13 -20 16 -20 2 0 0 9 -6 20 -6 11 -13 20 -16 20
-2 0 0 -9 6 -20z"/>
<path d="M5931 7154 c0 -11 3 -14 6 -6 3 7 2 16 -1 19 -3 4 -6 -2 -5 -13z"/>
<path d="M8655 7139 c-4 -6 -5 -12 -2 -15 2 -3 7 2 10 11 7 17 1 20 -8 4z"/>
<path d="M5975 7130 c-3 -5 -1 -10 4 -10 6 0 11 5 11 10 0 6 -2 10 -4 10 -3 0
-8 -4 -11 -10z"/>
<path d="M6460 7125 c-19 -22 -8 -25 13 -3 9 10 13 18 8 18 -5 0 -14 -7 -21
-15z"/>
<path d="M8608 7102 c-14 -15 -28 -34 -30 -42 -1 -8 -7 -19 -13 -23 -6 -5 -5
-7 3 -5 8 2 14 8 14 13 0 18 18 45 30 45 6 0 5 -7 -3 -17 -13 -16 -12 -17 4
-4 9 8 15 16 13 19 -3 2 -1 13 5 23 13 25 9 24 -23 -9z"/>
<path d="M8667 7117 c-3 -8 1 -14 8 -14 7 0 11 6 8 14 -3 7 -6 13 -8 13 -2 0
-5 -6 -8 -13z"/>
<path d="M8160 7095 c-7 -8 -9 -15 -4 -15 4 0 -1 -7 -12 -16 -18 -14 -18 -15
4 -4 13 7 21 14 18 17 -3 4 -1 12 5 20 6 7 9 13 6 13 -2 0 -10 -7 -17 -15z"/>
<path d="M6492 7070 c0 -14 2 -19 5 -12 2 6 2 18 0 25 -3 6 -5 1 -5 -13z"/>
<path d="M6050 7070 c0 -5 5 -10 11 -10 5 0 7 5 4 10 -3 6 -8 10 -11 10 -2 0
-4 -4 -4 -10z"/>
<path d="M8487 7006 c-10 -8 -14 -17 -9 -20 6 -3 13 1 16 10 5 14 9 14 24 3
15 -13 16 -12 3 4 -7 9 -14 17 -15 17 0 0 -9 -7 -19 -14z"/>
<path d="M8417 6942 c3 -7 9 -10 12 -5 3 4 10 11 15 15 4 4 -1 6 -12 5 -12 -1
-18 -6 -15 -15z"/>
<path d="M6232 6926 c7 -8 15 -12 17 -11 5 6 -10 25 -20 25 -5 0 -4 -6 3 -14z"/>
<path d="M6496 6925 c-9 -26 -7 -32 5 -12 6 10 9 21 6 23 -2 3 -7 -2 -11 -11z"/>
<path d="M8380 6926 c7 -7 13 -7 20 0 6 6 3 10 -10 10 -13 0 -16 -4 -10 -10z"/>
<path d="M6266 6913 c-6 -14 -5 -15 5 -6 7 7 10 15 7 18 -3 3 -9 -2 -12 -12z"/>
<path d="M8344 6904 c9 -6 13 -14 9 -18 -4 -4 1 -4 12 0 11 5 14 9 7 12 -7 2
-10 7 -8 11 3 4 -4 7 -15 7 -18 0 -18 -2 -5 -12z"/>
<path d="M8310 6891 c0 -6 4 -12 8 -15 5 -3 9 1 9 9 0 8 -4 15 -9 15 -4 0 -8
-4 -8 -9z"/>
<path d="M6293 6875 c0 -8 4 -12 9 -9 5 3 6 10 3 15 -9 13 -12 11 -12 -6z"/>
<path d="M6372 6866 c1 -14 5 -23 9 -20 7 4 0 44 -7 44 -2 0 -3 -11 -2 -24z"/>
<path d="M6413 6855 c0 -8 4 -12 9 -9 5 3 6 10 3 15 -9 13 -12 11 -12 -6z"/>
<path d="M13630 6475 c-7 -9 -11 -17 -9 -20 3 -2 10 5 17 15 14 24 10 26 -8 5z"/>
<path d="M4755 6249 c-8 -12 0 -22 20 -25 8 -1 13 2 9 7 -3 5 -10 6 -16 3 -7
-5 -9 -1 -5 9 7 19 2 23 -8 6z"/>
<path d="M9870 6236 c0 -2 7 -7 16 -10 8 -3 12 -2 9 4 -6 10 -25 14 -25 6z"/>
<path d="M4793 6195 c0 -8 4 -12 9 -9 5 3 6 10 3 15 -9 13 -12 11 -12 -6z"/>
<path d="M9815 6170 c-3 -5 -1 -10 4 -10 6 0 11 5 11 10 0 6 -2 10 -4 10 -3 0
-8 -4 -11 -10z"/>
<path d="M9820 6121 c0 -6 4 -13 10 -16 6 -3 7 1 4 9 -7 18 -14 21 -14 7z"/>
<path d="M9810 6090 c0 -5 5 -10 11 -10 5 0 7 5 4 10 -3 6 -8 10 -11 10 -2 0
-4 -4 -4 -10z"/>
<path d="M4845 6069 c-4 -6 -4 -13 -1 -16 3 -4 6 -1 6 6 0 7 5 9 12 5 7 -4 8
-3 4 4 -9 15 -13 15 -21 1z"/>
<path d="M4846 6023 c-4 -11 -1 -11 14 -3 24 13 25 17 5 17 -8 0 -16 -6 -19
-14z"/>
<path d="M9755 5990 c-3 -5 -1 -10 4 -10 6 0 11 5 11 10 0 6 -2 10 -4 10 -3 0
-8 -4 -11 -10z"/>
<path d="M4896 5971 c9 -9 34 -9 34 -1 0 5 -9 8 -20 7 -10 -1 -17 -3 -14 -6z"/>
<path d="M4880 5951 c5 -11 15 -23 21 -27 6 -3 3 5 -6 20 -20 30 -30 35 -15 7z"/>
<path d="M9707 5949 c7 -7 15 -10 18 -7 3 3 -2 9 -12 12 -14 6 -15 5 -6 -5z"/>
<path d="M9697 5909 c7 -7 15 -10 18 -7 3 3 -2 9 -12 12 -14 6 -15 5 -6 -5z"/>
<path d="M4953 5885 c0 -8 4 -12 9 -9 5 3 6 10 3 15 -9 13 -12 11 -12 -6z"/>
<path d="M4985 5792 c-9 -9 6 -21 20 -16 10 4 13 -1 9 -20 -2 -14 0 -26 4 -26
7 0 9 28 3 61 -1 7 -29 8 -36 1z"/>
<path d="M9595 5750 c-3 -5 -1 -10 4 -10 6 0 11 5 11 10 0 6 -2 10 -4 10 -3 0
-8 -4 -11 -10z"/>
<path d="M5032 5724 c-7 -8 -8 -14 -3 -14 10 0 25 19 20 25 -2 1 -10 -3 -17
-11z"/>
<path d="M9615 5730 c-3 -5 -12 -7 -20 -3 -8 3 -15 3 -15 0 0 -13 30 -14 40
-1 7 8 10 14 7 14 -3 0 -8 -4 -12 -10z"/>
<path d="M1087 5709 c7 -7 15 -10 18 -7 3 3 -2 9 -12 12 -14 6 -15 5 -6 -5z"/>
<path d="M9555 5710 c3 -5 8 -10 11 -10 2 0 4 5 4 10 0 6 -5 10 -11 10 -5 0
-7 -4 -4 -10z"/>
<path d="M9579 5698 c-6 -22 -5 -38 3 -38 6 0 8 6 5 14 -3 8 -1 17 6 20 9 3 9
5 0 5 -7 1 -13 0 -14 -1z"/>
<path d="M5068 5658 c5 -5 16 -8 23 -6 8 3 3 7 -10 11 -17 4 -21 3 -13 -5z"/>
<path d="M1113 5644 c0 -8 4 -14 9 -14 4 0 8 5 8 11 0 5 6 7 13 3 6 -4 8 -3 4
1 -13 15 -34 14 -34 -1z"/>
<path d="M5110 5656 c0 -2 7 -7 16 -10 8 -3 12 -2 9 4 -6 10 -25 14 -25 6z"/>
<path d="M13495 5650 c-3 -5 -1 -10 4 -10 6 0 11 5 11 10 0 6 -2 10 -4 10 -3
0 -8 -4 -11 -10z"/>
<path d="M13514 5625 c-4 -8 -11 -12 -17 -8 -6 3 -7 1 -3 -5 9 -15 33 -5 33
13 0 19 -6 19 -13 0z"/>
<path d="M1150 5585 c0 -8 4 -15 10 -15 5 0 7 7 4 15 -4 8 -8 15 -10 15 -2 0
-4 -7 -4 -15z"/>
<path d="M13487 5589 c7 -7 15 -10 18 -7 3 3 -2 9 -12 12 -14 6 -15 5 -6 -5z"/>
<path d="M5146 5564 c-8 -22 33 -74 58 -73 18 1 18 2 -4 9 -14 4 -21 8 -15 9
5 1 -1 8 -13 17 -12 8 -22 20 -22 26 0 6 10 3 23 -8 22 -19 22 -19 4 2 -9 11
-14 24 -10 27 3 4 2 7 -4 7 -6 0 -14 -7 -17 -16z"/>
<path d="M9435 5540 c-4 -6 -11 -7 -17 -4 -7 5 -8 2 -4 -5 5 -7 10 -10 13 -7
3 3 15 1 27 -5 19 -9 19 -9 4 4 -10 8 -15 17 -11 20 3 4 4 7 0 7 -3 0 -9 -5
-12 -10z"/>
<path d="M1146 5527 c3 -10 9 -15 12 -12 3 3 0 11 -7 18 -10 9 -11 8 -5 -6z"/>
<path d="M1153 5485 c0 -7 6 -11 14 -8 7 3 13 6 13 8 0 2 -6 5 -13 8 -8 3 -14
-1 -14 -8z"/>
<path d="M5235 5489 c-4 -6 -5 -12 -2 -15 2 -3 7 2 10 11 7 17 1 20 -8 4z"/>
<path d="M13490 5490 c0 -5 5 -10 11 -10 5 0 7 5 4 10 -3 6 -8 10 -11 10 -2 0
-4 -4 -4 -10z"/>
<path d="M13455 5470 c3 -5 1 -10 -5 -10 -6 0 -8 -4 -5 -10 10 -16 21 -11 22
10 1 11 -3 20 -8 20 -6 0 -7 -4 -4 -10z"/>
<path d="M1180 5419 c-13 -9 -13 -10 1 -6 9 3 23 0 30 -6 11 -10 11 -9 0 6 -7
9 -14 17 -15 17 0 0 -8 -5 -16 -11z"/>
<path d="M13440 5426 c0 -2 7 -7 16 -10 8 -3 12 -2 9 4 -6 10 -25 14 -25 6z"/>
<path d="M5276 5411 c-18 -7 -18 -8 -3 -14 9 -3 17 -2 17 4 0 6 5 7 12 3 7 -4
8 -3 4 4 -4 7 -8 12 -9 11 -1 0 -11 -4 -21 -8z"/>
<path d="M9367 5414 c-3 -3 -3 -13 1 -22 5 -15 4 -16 -14 -2 -18 14 -18 14 -5
-2 16 -21 30 -15 28 12 -1 22 -1 22 -10 14z"/>
<path d="M1192 5396 c4 -5 0 -15 -10 -23 -15 -13 -15 -13 5 -4 16 8 23 8 26
-2 4 -7 6 -8 6 -1 1 6 -7 18 -16 25 -10 7 -15 9 -11 5z"/>
<path d="M13426 5391 c-4 -5 3 -7 14 -4 23 6 26 13 6 13 -8 0 -17 -4 -20 -9z"/>
<path d="M5310 5370 c0 -5 5 -10 11 -10 5 0 7 5 4 10 -3 6 -8 10 -11 10 -2 0
-4 -4 -4 -10z"/>
<path d="M9324 5365 c-4 -8 -11 -12 -17 -8 -6 3 -7 1 -3 -5 10 -17 26 -15 26
4 0 9 5 12 12 8 7 -4 8 -3 4 4 -10 16 -15 15 -22 -3z"/>
<path d="M1190 5350 c0 -5 5 -10 11 -10 5 0 7 5 4 10 -3 6 -8 10 -11 10 -2 0
-4 -4 -4 -10z"/>
<path d="M1213 5307 c-1 -11 -1 -18 0 -16 2 2 8 11 15 20 9 12 9 16 -1 16 -7
0 -14 -9 -14 -20z"/>
<path d="M5330 5310 c0 -5 5 -10 10 -10 6 0 10 5 10 10 0 6 -4 10 -10 10 -5 0
-10 -4 -10 -10z"/>
<path d="M9236 5308 c3 -5 10 -6 15 -3 13 9 11 12 -6 12 -8 0 -12 -4 -9 -9z"/>
<path d="M5357 5294 c-7 -8 14 -54 25 -54 5 0 2 10 -7 23 -8 13 -12 27 -8 30
3 4 4 7 1 7 -2 0 -7 -3 -11 -6z"/>
<path d="M9268 5283 c7 -3 16 -2 19 1 4 3 -2 6 -13 5 -11 0 -14 -3 -6 -6z"/>
<path d="M9260 5250 c-6 -11 -9 -20 -8 -20 2 0 11 9 21 20 9 11 13 20 7 20 -5
0 -14 -9 -20 -20z"/>
<path d="M5405 5250 c-3 -5 -2 -18 4 -27 7 -14 9 -12 8 10 -2 30 -3 31 -12 17z"/>
<path d="M1250 5242 c0 -7 5 -22 11 -34 10 -18 8 -19 -13 -13 -20 5 -21 5 -5
-6 27 -16 37 1 21 36 -7 17 -13 24 -14 17z"/>
<path d="M13414 5230 c0 -13 4 -16 10 -10 7 7 7 13 0 20 -6 6 -10 3 -10 -10z"/>
<path d="M9223 5225 c-10 -11 -9 -13 6 -12 11 1 17 7 14 14 -6 16 -5 16 -20
-2z"/>
<path d="M13372 5225 c4 -4 3 -13 -2 -20 -6 -8 -5 -18 6 -31 15 -18 15 -18 5
2 -7 14 -7 24 0 31 8 8 7 13 -3 18 -7 5 -10 5 -6 0z"/>
<path d="M5428 5193 c6 -2 18 -2 25 0 6 3 1 5 -13 5 -14 0 -19 -2 -12 -5z"/>
<path d="M9205 5191 c3 -5 1 -12 -5 -16 -5 -3 -10 -1 -10 6 0 7 -3 10 -6 6 -3
-3 -3 -11 1 -17 5 -8 11 -8 21 1 17 14 18 29 3 29 -5 0 -8 -4 -4 -9z"/>
<path d="M1270 5159 c0 -5 5 -7 10 -4 6 3 10 8 10 11 0 2 -4 4 -10 4 -5 0 -10
-5 -10 -11z"/>
<path d="M5485 5150 c-3 -5 -1 -10 4 -10 6 0 11 5 11 10 0 6 -2 10 -4 10 -3 0
-8 -4 -11 -10z"/>
<path d="M9169 5153 c-1 -5 -1 -12 0 -17 1 -5 -5 -6 -12 -3 -11 4 -13 0 -10
-14 5 -17 -5 -24 -29 -20 -5 0 -8 -3 -8 -9 0 -5 5 -10 10 -10 16 0 57 47 57
65 0 15 -6 21 -8 8z"/>
<path d="M13347 5146 c-4 -10 -1 -13 9 -9 7 3 14 9 14 14 0 14 -17 10 -23 -5z"/>
<path d="M4299 5126 c11 -15 19 -32 16 -36 -2 -3 2 -7 9 -7 7 0 13 6 13 14 0
7 -2 11 -5 9 -2 -3 -15 7 -29 22 l-25 27 21 -29z"/>
<path d="M10390 5140 c0 -5 5 -10 11 -10 5 0 7 5 4 10 -3 6 -8 10 -11 10 -2 0
-4 -4 -4 -10z"/>
<path d="M1282 5104 c-7 -8 -19 -11 -25 -8 -7 4 -8 3 -4 -1 13 -15 35 -14 42
2 8 21 3 24 -13 7z"/>
<path d="M10373 5085 c0 -8 4 -12 9 -9 5 3 6 10 3 15 -9 13 -12 11 -12 -6z"/>
<path d="M10250 5065 c-13 -14 -20 -25 -16 -25 4 0 17 10 28 23 18 20 19 20
13 2 -5 -16 -4 -18 6 -7 9 8 10 15 3 22 -7 7 -18 2 -34 -15z"/>
<path d="M4382 5060 c7 -11 17 -20 22 -20 5 0 1 9 -9 20 -10 11 -20 20 -22 20
-2 0 2 -9 9 -20z"/>
<path d="M5515 5070 c-2 -3 5 -7 16 -7 10 -1 19 2 19 6 0 9 -29 10 -35 1z"/>
<path d="M9059 5063 c-13 -17 -13 -17 6 -3 11 8 22 16 24 17 2 2 0 3 -6 3 -6
0 -17 -8 -24 -17z"/>
<path d="M9088 5051 c-12 -14 -13 -21 -5 -25 7 -2 4 -5 -5 -5 -10 -1 -18 -5
-18 -9 0 -15 -37 -52 -44 -45 -4 4 -4 -1 0 -10 6 -16 8 -16 23 4 9 12 27 32
40 45 13 13 21 24 17 24 -4 0 -2 9 4 20 14 25 9 25 -12 1z"/>
<path d="M5550 5050 c-9 -6 -10 -10 -3 -10 6 0 15 5 18 10 8 12 4 12 -15 0z"/>
<path d="M10205 5030 c-3 -5 -1 -10 4 -10 6 0 11 5 11 10 0 6 -2 10 -4 10 -3
0 -8 -4 -11 -10z"/>
<path d="M10266 5028 c3 -5 10 -6 15 -3 13 9 11 12 -6 12 -8 0 -12 -4 -9 -9z"/>
<path d="M10235 5021 c-3 -5 -2 -12 3 -15 5 -3 9 1 9 9 0 17 -3 19 -12 6z"/>
<path d="M9015 5010 c-3 -5 -1 -10 4 -10 6 0 11 5 11 10 0 6 -2 10 -4 10 -3 0
-8 -4 -11 -10z"/>
<path d="M10180 5010 c0 -6 7 -10 15 -10 8 0 15 2 15 4 0 2 -7 6 -15 10 -8 3
-15 1 -15 -4z"/>
<path d="M4445 4990 c3 -5 8 -10 11 -10 2 0 4 5 4 10 0 6 -5 10 -11 10 -5 0
-7 -4 -4 -10z"/>
<path d="M10149 4982 c-11 -14 -11 -15 0 -5 7 6 20 9 27 6 8 -3 14 -3 14 0 0
14 -30 14 -41 -1z"/>
<path d="M1315 4970 c-3 -5 -1 -10 4 -10 6 0 11 5 11 10 0 6 -2 10 -4 10 -3 0
-8 -4 -11 -10z"/>
<path d="M4497 4959 c7 -7 15 -10 18 -7 3 3 -2 9 -12 12 -14 6 -15 5 -6 -5z"/>
<path d="M1345 4950 c3 -5 8 -10 11 -10 2 0 4 5 4 10 0 6 -5 10 -11 10 -5 0
-7 -4 -4 -10z"/>
<path d="M4466 4952 c-3 -5 1 -9 9 -9 8 0 12 4 9 9 -3 4 -7 8 -9 8 -2 0 -6 -4
-9 -8z"/>
<path d="M8975 4950 c-4 -6 -3 -10 2 -9 20 3 27 -2 13 -11 -13 -8 -12 -10 3
-10 21 0 22 13 3 29 -10 8 -16 9 -21 1z"/>
<path d="M10090 4950 c0 -5 5 -10 10 -10 6 0 10 5 10 10 0 6 -4 10 -10 10 -5
0 -10 -4 -10 -10z"/>
<path d="M10125 4949 c-3 -4 2 -6 10 -5 21 3 28 13 10 13 -9 0 -18 -4 -20 -8z"/>
<path d="M4534 4943 c4 -4 16 -8 28 -10 12 -2 19 -1 16 2 -3 3 -16 8 -28 10
-12 2 -20 1 -16 -2z"/>
<path d="M1337 4919 c4 -13 8 -18 11 -10 2 7 -1 18 -6 23 -8 8 -9 4 -5 -13z"/>
<path d="M5620 4932 c0 -7 8 -16 18 -19 9 -4 20 -11 24 -17 5 -7 8 -7 8 2 0 7
-8 16 -17 19 -10 4 -21 11 -25 17 -5 7 -8 7 -8 -2z"/>
<path d="M10063 4933 c-15 -6 -17 -33 -3 -33 6 0 9 6 8 13 -2 6 3 11 10 9 8
-1 11 2 7 8 -3 5 -7 10 -8 9 -1 0 -8 -3 -14 -6z"/>
<path d="M4582 4921 c-11 -7 -11 -9 0 -14 9 -3 15 1 15 9 0 8 -1 14 -1 14 -1
0 -7 -4 -14 -9z"/>
<path d="M5676 4917 c3 -10 9 -15 12 -12 3 3 0 11 -7 18 -10 9 -11 8 -5 -6z"/>
<path d="M4520 4910 c-9 -6 -10 -10 -3 -10 6 0 15 5 18 10 8 12 4 12 -15 0z"/>
<path d="M13266 4908 c3 -5 10 -6 15 -3 13 9 11 12 -6 12 -8 0 -12 -4 -9 -9z"/>
<path d="M1360 4896 c0 -2 8 -10 18 -17 15 -13 16 -12 3 4 -13 16 -21 21 -21
13z"/>
<path d="M1335 4881 c-3 -5 -2 -12 3 -15 5 -3 9 1 9 9 0 17 -3 19 -12 6z"/>
<path d="M4593 4875 c0 -8 4 -15 9 -15 4 0 8 4 8 9 0 6 -4 12 -8 15 -5 3 -9
-1 -9 -9z"/>
<path d="M8955 4880 c-3 -5 -1 -10 4 -10 6 0 11 5 11 10 0 6 -2 10 -4 10 -3 0
-8 -4 -11 -10z"/>
<path d="M10075 4879 c-4 -6 -5 -12 -2 -15 2 -3 7 2 10 11 7 17 1 20 -8 4z"/>
<path d="M8925 4869 c-4 -6 -5 -12 -2 -15 2 -3 7 2 10 11 7 17 1 20 -8 4z"/>
<path d="M1360 4861 c0 -6 4 -13 10 -16 6 -3 7 1 4 9 -7 18 -14 21 -14 7z"/>
<path d="M4646 4852 c-3 -5 1 -9 9 -9 8 0 12 4 9 9 -3 4 -7 8 -9 8 -2 0 -6 -4
-9 -8z"/>
<path d="M10000 4850 c-9 -6 -10 -10 -3 -10 6 0 15 5 18 10 8 12 4 12 -15 0z"/>
<path d="M4699 4848 c-6 -22 -5 -39 3 -45 7 -3 8 -1 4 5 -4 7 -3 12 3 12 5 0
12 -6 14 -12 4 -10 6 -10 6 0 1 7 -6 15 -14 18 -8 4 -12 10 -9 15 3 5 3 9 0 9
-3 0 -6 -1 -7 -2z"/>
<path d="M4731 4833 c7 -10 15 -20 16 -22 2 -2 3 3 3 11 0 9 -7 19 -16 22 -15
6 -15 4 -3 -11z"/>
<path d="M5715 4839 c-4 -6 -5 -12 -2 -15 2 -3 7 2 10 11 7 17 1 20 -8 4z"/>
<path d="M9950 4839 c0 -5 5 -7 10 -4 6 3 10 8 10 11 0 2 -4 4 -10 4 -5 0 -10
-5 -10 -11z"/>
<path d="M5725 4810 c-3 -5 -2 -10 4 -10 5 0 13 5 16 10 3 6 2 10 -4 10 -5 0
-13 -4 -16 -10z"/>
<path d="M8856 4807 c3 -10 9 -15 12 -12 3 3 0 11 -7 18 -10 9 -11 8 -5 -6z"/>
<path d="M1400 4795 c7 -8 9 -15 4 -15 -5 0 0 -7 11 -16 11 -8 19 -17 18 -19
-7 -12 -2 -25 8 -25 8 0 9 4 0 13 -6 8 -8 17 -4 20 3 4 -1 9 -10 13 -9 3 -14
11 -11 19 3 7 -2 15 -12 19 -14 5 -15 4 -4 -9z"/>
<path d="M5745 4790 c-3 -6 1 -7 9 -4 18 7 21 14 7 14 -6 0 -13 -4 -16 -10z"/>
<path d="M4826 4775 c4 -8 11 -15 16 -15 6 0 5 6 -2 15 -7 8 -14 15 -16 15 -2
0 -1 -7 2 -15z"/>
<path d="M4796 4772 c-3 -5 1 -9 9 -9 8 0 12 4 9 9 -3 4 -7 8 -9 8 -2 0 -6 -4
-9 -8z"/>
<path d="M5770 4771 c0 -7 -5 -9 -12 -5 -7 5 -8 3 -3 -5 5 -9 10 -10 18 -2 6
6 8 14 4 18 -4 3 -7 1 -7 -6z"/>
<path d="M9895 4770 c3 -5 8 -10 11 -10 2 0 4 5 4 10 0 6 -5 10 -11 10 -5 0
-7 -4 -4 -10z"/>
<path d="M4864 4740 c0 -10 6 -16 13 -13 7 3 13 9 13 13 0 4 -6 10 -13 13 -7
3 -13 -3 -13 -13z"/>
<path d="M13210 4755 c0 -7 30 -13 34 -7 3 4 -4 9 -15 9 -10 1 -19 0 -19 -2z"/>
<path d="M4835 4741 c-3 -5 -2 -12 3 -15 5 -3 9 1 9 9 0 17 -3 19 -12 6z"/>
<path d="M1396 4732 c-3 -5 1 -9 9 -9 8 0 12 4 9 9 -3 4 -7 8 -9 8 -2 0 -6 -4
-9 -8z"/>
<path d="M5816 4728 c3 -5 10 -6 15 -3 13 9 11 12 -6 12 -8 0 -12 -4 -9 -9z"/>
<path d="M8804 4726 c-10 -8 -17 -16 -14 -19 3 -2 14 4 24 14 23 22 18 25 -10
5z"/>
<path d="M5812 4705 c13 -14 20 -16 31 -7 8 7 18 8 22 4 5 -4 5 -1 1 6 -6 10
-11 10 -22 1 -11 -9 -18 -8 -31 2 -17 12 -17 12 -1 -6z"/>
<path d="M9705 4698 l-20 -21 23 12 c12 6 22 16 22 21 0 13 -2 12 -25 -12z"/>
<path d="M13211 4717 c2 -1 13 -9 24 -17 19 -14 19 -14 6 3 -7 9 -18 17 -24
17 -6 0 -8 -1 -6 -3z"/>
<path d="M1442 4697 c-8 -10 -6 -13 11 -14 12 0 16 1 9 4 -6 3 -10 9 -6 14 8
14 -2 11 -14 -4z"/>
<path d="M4997 4675 c-4 -8 -3 -16 1 -19 4 -3 9 4 9 15 2 23 -3 25 -10 4z"/>
<path d="M5020 4675 c0 -5 5 -17 10 -25 5 -8 10 -10 10 -5 0 6 -5 17 -10 25
-5 8 -10 11 -10 5z"/>
<path d="M9634 4655 c0 -13 3 -22 7 -19 8 4 6 30 -2 38 -3 3 -5 -5 -5 -19z"/>
<path d="M1436 4661 c-3 -5 1 -11 9 -14 9 -4 12 -1 8 9 -6 16 -10 17 -17 5z"/>
<path d="M9598 4663 c7 -3 16 -2 19 1 4 3 -2 6 -13 5 -11 0 -14 -3 -6 -6z"/>
<path d="M13188 4653 c7 -3 16 -2 19 1 4 3 -2 6 -13 5 -11 0 -14 -3 -6 -6z"/>
<path d="M9590 4639 c0 -5 -4 -8 -8 -5 -5 3 -9 -1 -9 -9 0 -13 4 -12 19 2 21
18 22 23 8 23 -5 0 -10 -5 -10 -11z"/>
<path d="M13160 4635 c0 -8 0 -18 1 -21 0 -4 -5 -11 -13 -16 -11 -8 -10 -9 1
-6 13 4 28 58 16 58 -3 0 -5 -7 -5 -15z"/>
<path d="M1470 4629 c0 -5 5 -7 10 -4 6 3 10 8 10 11 0 2 -4 4 -10 4 -5 0 -10
-5 -10 -11z"/>
<path d="M4990 4636 c0 -2 7 -7 16 -10 8 -3 12 -2 9 4 -6 10 -25 14 -25 6z"/>
<path d="M5913 4625 c0 -8 4 -12 9 -9 5 3 6 10 3 15 -9 13 -12 11 -12 -6z"/>
<path d="M8746 4624 c-5 -14 -4 -15 9 -4 17 14 19 20 6 20 -5 0 -12 -7 -15
-16z"/>
<path d="M5879 4607 c26 -28 31 -32 31 -19 0 4 -13 16 -28 26 l-27 19 24 -26z"/>
<path d="M1455 4601 c-3 -5 -2 -12 3 -15 5 -3 9 1 9 9 0 17 -3 19 -12 6z"/>
<path d="M1481 4594 c0 -11 3 -14 6 -6 3 7 2 16 -1 19 -3 4 -6 -2 -5 -13z"/>
<path d="M5110 4606 c0 -3 9 -10 20 -16 11 -6 20 -8 20 -6 0 3 -9 10 -20 16
-11 6 -20 8 -20 6z"/>
<path d="M9460 4588 c-10 -21 -10 -21 3 -6 11 14 16 15 27 5 12 -10 12 -9 1 6
-17 22 -18 22 -31 -5z"/>
<path d="M5174 4588 c-4 -7 -3 -8 4 -4 7 4 12 2 12 -3 0 -6 5 -11 10 -11 15 0
12 17 -5 23 -8 4 -17 1 -21 -5z"/>
<path d="M8670 4590 c0 -5 5 -10 11 -10 5 0 7 5 4 10 -3 6 -8 10 -11 10 -2 0
-4 -4 -4 -10z"/>
<path d="M8701 4588 c-1 -21 15 -32 25 -17 4 7 3 9 -4 5 -6 -3 -13 2 -15 11
-4 16 -5 16 -6 1z"/>
<path d="M9573 4585 c0 -8 4 -12 9 -9 5 3 6 10 3 15 -9 13 -12 11 -12 -6z"/>
<path d="M9513 4575 c0 -8 4 -12 9 -9 5 3 6 10 3 15 -9 13 -12 11 -12 -6z"/>
<path d="M5960 4570 c8 -5 20 -10 25 -10 6 0 3 5 -5 10 -8 5 -19 10 -25 10 -5
0 -3 -5 5 -10z"/>
<path d="M13125 4570 c-3 -6 1 -7 9 -4 18 7 21 14 7 14 -6 0 -13 -4 -16 -10z"/>
<path d="M1490 4566 c0 -3 9 -10 20 -16 11 -6 20 -8 20 -6 0 3 -9 10 -20 16
-11 6 -20 8 -20 6z"/>
<path d="M5150 4555 c0 -7 30 -13 34 -7 3 4 -4 9 -15 9 -10 1 -19 0 -19 -2z"/>
<path d="M5210 4549 c0 -5 5 -7 10 -4 6 3 10 8 10 11 0 2 -4 4 -10 4 -5 0 -10
-5 -10 -11z"/>
<path d="M5944 4545 c11 -8 16 -15 12 -15 -5 0 -3 -7 4 -15 14 -17 30 -20 30
-5 0 6 -4 9 -9 8 -5 -2 -10 2 -11 7 -3 16 -21 35 -34 35 -6 0 -2 -7 8 -15z"/>
<path d="M8670 4555 c0 -5 5 -17 10 -25 5 -8 10 -10 10 -5 0 6 -5 17 -10 25
-5 8 -10 11 -10 5z"/>
<path d="M13140 4552 c0 -5 7 -9 15 -9 8 0 12 4 9 9 -3 4 -9 8 -15 8 -5 0 -9
-4 -9 -8z"/>
<path d="M5296 4541 c-5 -7 -5 -15 -2 -18 3 -4 6 0 6 8 1 8 7 3 15 -11 8 -14
14 -20 15 -14 0 5 -6 18 -13 29 -10 13 -16 15 -21 6z"/>
<path d="M13114 4530 c0 -13 4 -16 10 -10 7 7 7 13 0 20 -6 6 -10 3 -10 -10z"/>
<path d="M5340 4526 c0 -2 7 -9 15 -16 9 -7 15 -8 15 -2 0 5 -7 12 -15 16 -8
3 -15 4 -15 2z"/>
<path d="M9349 4513 c-13 -16 -12 -17 4 -4 16 13 21 21 13 21 -2 0 -10 -8 -17
-17z"/>
<path d="M5293 4495 c0 -8 4 -12 9 -9 5 3 6 10 3 15 -9 13 -12 11 -12 -6z"/>
<path d="M1534 4489 c-4 -8 -3 -9 4 -5 8 5 12 0 12 -13 0 -12 4 -21 9 -21 11
0 3 38 -10 45 -4 3 -11 0 -15 -6z"/>
<path d="M9270 4491 c0 -5 8 -15 18 -22 15 -12 16 -12 5 2 -7 9 -10 19 -6 22
3 4 1 7 -5 7 -7 0 -12 -4 -12 -9z"/>
<path d="M13110 4493 c0 -5 5 -15 10 -23 7 -12 9 -10 7 8 -1 19 -17 33 -17 15z"/>
<path d="M5990 4479 c0 -5 5 -7 10 -4 6 3 10 8 10 11 0 2 -4 4 -10 4 -5 0 -10
-5 -10 -11z"/>
<path d="M9232 4470 c0 -14 2 -19 5 -12 2 6 2 18 0 25 -3 6 -5 1 -5 -13z"/>
<path d="M5400 4472 c0 -5 7 -9 15 -9 8 0 12 4 9 9 -3 4 -9 8 -15 8 -5 0 -9
-4 -9 -8z"/>
<path d="M5460 4470 c0 -5 5 -10 11 -10 5 0 7 5 4 10 -3 6 -8 10 -11 10 -2 0
-4 -4 -4 -10z"/>
<path d="M5496 4455 c4 -8 11 -15 16 -15 6 0 5 6 -2 15 -7 8 -14 15 -16 15 -2
0 -1 -7 2 -15z"/>
<path d="M8610 4450 c-9 -6 -10 -10 -3 -10 6 0 15 5 18 10 8 12 4 12 -15 0z"/>
<path d="M13087 4449 c7 -7 15 -10 18 -7 3 3 -2 9 -12 12 -14 6 -15 5 -6 -5z"/>
<path d="M9150 4439 c0 -5 5 -7 10 -4 6 3 10 8 10 11 0 2 -4 4 -10 4 -5 0 -10
-5 -10 -11z"/>
<path d="M1467 4429 c7 -7 15 -10 18 -7 3 3 -2 9 -12 12 -14 6 -15 5 -6 -5z"/>
<path d="M5571 4424 c0 -11 3 -14 6 -6 3 7 2 16 -1 19 -3 4 -6 -2 -5 -13z"/>
<path d="M13053 4404 c-15 -22 -18 -36 -11 -40 7 -5 8 -2 3 6 -6 10 -4 12 8 7
11 -4 14 -2 11 7 -3 7 2 20 11 29 8 9 12 18 8 20 -5 3 -18 -11 -30 -29z"/>
<path d="M1556 4422 c-2 -4 4 -8 14 -8 10 0 16 4 14 8 -3 4 -9 8 -14 8 -5 0
-11 -4 -14 -8z"/>
<path d="M5595 4419 c-4 -6 -5 -12 -2 -15 2 -3 7 2 10 11 7 17 1 20 -8 4z"/>
<path d="M5504 4413 c4 -4 16 -8 28 -10 28 -4 18 6 -12 12 -12 2 -20 1 -16 -2z"/>
<path d="M5614 4409 c-4 -7 -3 -9 4 -5 5 3 13 0 15 -6 4 -9 6 -10 6 -1 1 17
-16 25 -25 12z"/>
<path d="M8576 4412 c-3 -4 4 -9 15 -9 23 -2 25 3 4 10 -8 4 -16 3 -19 -1z"/>
<path d="M9095 4401 c-3 -5 -2 -12 3 -15 5 -3 9 1 9 9 0 17 -3 19 -12 6z"/>
<path d="M5660 4390 c-9 -6 -10 -10 -3 -10 6 0 15 5 18 10 8 12 4 12 -15 0z"/>
<path d="M8941 4384 c0 -11 3 -14 6 -6 3 7 2 16 -1 19 -3 4 -6 -2 -5 -13z"/>
<path d="M1590 4380 c0 -5 5 -10 11 -10 5 0 7 5 4 10 -3 6 -8 10 -11 10 -2 0
-4 -4 -4 -10z"/>
<path d="M9035 4381 c-3 -5 -2 -12 3 -15 5 -3 9 1 9 9 0 17 -3 19 -12 6z"/>
<path d="M5675 4370 c-3 -5 -1 -10 4 -10 6 0 11 5 11 10 0 6 -2 10 -4 10 -3 0
-8 -4 -11 -10z"/>
<path d="M5740 4371 c0 -5 5 -13 10 -16 6 -4 7 -12 4 -18 -5 -9 -4 -9 6 0 10
9 10 15 -4 28 -9 9 -16 12 -16 6z"/>
<path d="M5590 4349 c0 -5 5 -7 10 -4 6 3 10 8 10 11 0 2 -4 4 -10 4 -5 0 -10
-5 -10 -11z"/>
<path d="M5810 4350 c-9 -6 -10 -10 -3 -10 6 0 15 5 18 10 8 12 4 12 -15 0z"/>
<path d="M8827 4341 c-3 -13 0 -18 7 -15 7 3 13 11 13 19 0 22 -14 18 -20 -4z"/>
<path d="M13016 4343 c-6 -14 -5 -15 5 -6 7 7 10 15 7 18 -3 3 -9 -2 -12 -12z"/>
<path d="M1607 4339 c10 -10 9 -17 -5 -33 -13 -16 -13 -18 -1 -8 9 6 20 8 24
4 5 -4 5 -2 2 5 -4 6 -1 13 5 15 8 3 3 10 -12 18 -21 10 -23 10 -13 -1z"/>
<path d="M5834 4338 c-4 -7 -4 -10 1 -6 4 4 16 3 26 -3 11 -5 19 -7 19 -5 0 3
-9 10 -19 16 -15 7 -22 7 -27 -2z"/>
<path d="M5895 4329 c-6 -8 -4 -10 5 -4 10 6 12 4 6 -11 -6 -15 -5 -17 5 -6 9
9 10 15 2 23 -8 8 -13 7 -18 -2z"/>
<path d="M8790 4319 c0 -5 5 -7 10 -4 6 3 10 8 10 11 0 2 -4 4 -10 4 -5 0 -10
-5 -10 -11z"/>
<path d="M5930 4312 c0 -5 7 -9 15 -9 8 0 12 4 9 9 -3 4 -9 8 -15 8 -5 0 -9
-4 -9 -8z"/>
<path d="M1635 4289 c-4 -6 -4 -13 -1 -16 3 -4 6 -1 6 6 0 7 5 9 12 5 7 -4 8
-3 4 4 -9 15 -13 15 -21 1z"/>
<path d="M5973 4285 c0 -8 4 -12 9 -9 5 3 6 10 3 15 -9 13 -12 11 -12 -6z"/>
<path d="M8645 4290 c-3 -6 1 -7 9 -4 18 7 21 14 7 14 -6 0 -13 -4 -16 -10z"/>
<path d="M12990 4290 c0 -5 5 -10 11 -10 5 0 7 5 4 10 -3 6 -8 10 -11 10 -2 0
-4 -4 -4 -10z"/>
<path d="M1610 4271 c0 -6 4 -13 10 -16 6 -3 7 1 4 9 -7 18 -14 21 -14 7z"/>
<path d="M1691 4194 c-1 -12 6 -25 15 -28 13 -5 14 -3 7 6 -6 7 -13 20 -16 28
-4 10 -6 8 -6 -6z"/>
<path d="M1653 4175 c0 -8 4 -12 9 -9 5 3 6 10 3 15 -9 13 -12 11 -12 -6z"/>
<path d="M12950 4161 c0 -7 -5 -9 -12 -5 -7 5 -8 3 -3 -5 5 -9 10 -10 18 -2 6
6 8 14 4 18 -4 3 -7 1 -7 -6z"/>
<path d="M1737 4113 c-3 -5 0 -19 7 -32 11 -20 14 -21 19 -7 5 12 3 15 -5 10
-8 -5 -9 -2 -5 9 6 17 -8 34 -16 20z"/>
<path d="M10550 4089 c0 -5 5 -7 10 -4 6 3 10 8 10 11 0 2 -4 4 -10 4 -5 0
-10 -5 -10 -11z"/>
<path d="M12883 4072 c-13 -8 -63 -79 -63 -89 0 -11 39 39 45 58 6 17 17 23
38 20 4 0 7 4 7 9 0 12 -10 13 -27 2z"/>
<path d="M10515 4061 c-3 -5 -2 -12 3 -15 5 -3 9 1 9 9 0 17 -3 19 -12 6z"/>
<path d="M4104 4022 c0 -10 6 -19 13 -19 8 0 9 6 2 19 -5 10 -11 18 -12 18 -2
0 -3 -8 -3 -18z"/>
<path d="M1777 3999 c4 -13 8 -18 11 -10 2 7 -1 18 -6 23 -8 8 -9 4 -5 -13z"/>
<path d="M10527 3989 c7 -7 15 -10 18 -7 3 3 -2 9 -12 12 -14 6 -15 5 -6 -5z"/>
<path d="M4100 3976 c7 -7 13 -7 20 0 6 6 3 10 -10 10 -13 0 -16 -4 -10 -10z"/>
<path d="M12830 3970 c-9 -6 -10 -10 -3 -10 6 0 15 5 18 10 8 12 4 12 -15 0z"/>
<path d="M10474 3959 c-3 -6 -2 -15 3 -20 5 -5 9 -1 9 11 0 23 -2 24 -12 9z"/>
<path d="M1790 3950 c0 -5 5 -10 11 -10 5 0 7 5 4 10 -3 6 -8 10 -11 10 -2 0
-4 -4 -4 -10z"/>
<path d="M1825 3949 c-4 -6 -5 -12 -2 -15 2 -3 7 2 10 11 7 17 1 20 -8 4z"/>
<path d="M4130 3946 c0 -8 4 -17 8 -20 4 -2 8 4 8 15 0 10 -4 19 -8 19 -4 0
-8 -6 -8 -14z"/>
<path d="M12830 3939 c-22 -18 -22 -19 -3 -10 12 6 25 16 28 21 9 15 3 12 -25
-11z"/>
<path d="M10500 3921 c0 -7 -5 -9 -12 -5 -7 5 -8 3 -3 -5 5 -9 10 -10 18 -2 6
6 8 14 4 18 -4 3 -7 1 -7 -6z"/>
<path d="M10450 3890 c0 -5 5 -10 11 -10 5 0 7 5 4 10 -3 6 -8 10 -11 10 -2 0
-4 -4 -4 -10z"/>
<path d="M12806 3888 c3 -5 10 -6 15 -3 13 9 11 12 -6 12 -8 0 -12 -4 -9 -9z"/>
<path d="M1860 3870 c-9 -6 -10 -10 -3 -10 6 0 15 5 18 10 8 12 4 12 -15 0z"/>
<path d="M12752 3856 c-1 -15 1 -17 7 -7 5 7 15 17 22 22 10 6 8 8 -7 7 -12
-1 -21 -10 -22 -22z"/>
<path d="M12786 3848 c3 -5 10 -6 15 -3 13 9 11 12 -6 12 -8 0 -12 -4 -9 -9z"/>
<path d="M10457 3831 c-4 -17 -3 -21 5 -13 5 5 8 16 6 23 -3 8 -7 3 -11 -10z"/>
<path d="M1870 3831 c0 -6 4 -13 10 -16 6 -3 7 1 4 9 -7 18 -14 21 -14 7z"/>
<path d="M1900 3809 c0 -5 5 -7 10 -4 6 3 10 8 10 11 0 2 -4 4 -10 4 -5 0 -10
-5 -10 -11z"/>
<path d="M4193 3805 c0 -8 4 -12 9 -9 5 3 6 10 3 15 -9 13 -12 11 -12 -6z"/>
<path d="M12705 3810 c-3 -6 1 -7 9 -4 18 7 21 14 7 14 -6 0 -13 -4 -16 -10z"/>
<path d="M12770 3816 c0 -2 7 -7 16 -10 8 -3 12 -2 9 4 -6 10 -25 14 -25 6z"/>
<path d="M1876 3792 c-3 -5 1 -9 9 -9 8 0 12 4 9 9 -3 4 -7 8 -9 8 -2 0 -6 -4
-9 -8z"/>
<path d="M4215 3779 c-4 -6 -5 -12 -2 -15 2 -3 7 2 10 11 7 17 1 20 -8 4z"/>
<path d="M1930 3776 c0 -2 12 -12 28 -21 l27 -18 -19 21 c-17 20 -36 29 -36
18z"/>
<path d="M1915 3750 c3 -5 8 -10 11 -10 2 0 4 5 4 10 0 6 -5 10 -11 10 -5 0
-7 -4 -4 -10z"/>
<path d="M4166 3751 c-3 -5 2 -15 12 -22 15 -13 16 -12 3 4 -15 20 -2 23 19 5
12 -11 12 -10 1 5 -15 19 -27 22 -35 8z"/>
<path d="M10460 3731 c-8 -6 -19 -7 -25 -3 -5 3 -4 -1 3 -10 10 -13 10 -17 0
-21 -8 -2 -9 -8 -4 -13 8 -8 19 7 16 22 -1 3 7 12 17 20 20 15 16 19 -7 5z"/>
<path d="M12655 3730 c-7 -12 2 -12 30 0 19 8 19 9 -2 9 -12 1 -25 -3 -28 -9z"/>
<path d="M4217 3705 c-4 -8 -3 -16 1 -19 4 -3 9 4 9 15 2 23 -3 25 -10 4z"/>
<path d="M12637 3703 c-10 -10 -8 -23 4 -23 5 0 8 4 5 9 -4 5 0 12 6 14 7 3 8
6 2 6 -6 1 -14 -2 -17 -6z"/>
<path d="M1990 3690 c0 -5 5 -10 10 -10 6 0 10 5 10 10 0 6 -4 10 -10 10 -5 0
-10 -4 -10 -10z"/>
<path d="M4202 3666 c14 -10 15 -15 5 -26 -10 -12 -9 -12 6 -1 13 11 15 17 6
27 -6 8 -17 14 -23 14 -6 0 -3 -6 6 -14z"/>
<path d="M12670 3656 c0 -2 7 -7 16 -10 8 -3 12 -2 9 4 -6 10 -25 14 -25 6z"/>
<path d="M4225 3629 c-4 -6 -5 -12 -2 -15 2 -3 7 2 10 11 7 17 1 20 -8 4z"/>
<path d="M2030 3612 c0 -5 7 -9 15 -9 8 0 15 4 15 9 0 4 -7 8 -15 8 -8 0 -15
-4 -15 -8z"/>
<path d="M4265 3610 c-3 -6 1 -7 9 -4 18 7 21 14 7 14 -6 0 -13 -4 -16 -10z"/>
<path d="M10391 3603 c7 -10 15 -20 16 -22 2 -2 3 3 3 11 0 9 -7 19 -16 22
-15 6 -15 4 -3 -11z"/>
<path d="M12565 3600 c-3 -6 1 -7 9 -4 18 7 21 14 7 14 -6 0 -13 -4 -16 -10z"/>
<path d="M4230 3591 c0 -6 4 -12 8 -15 5 -3 9 1 9 9 0 8 -4 15 -9 15 -4 0 -8
-4 -8 -9z"/>
<path d="M2035 3581 c-3 -5 -2 -12 3 -15 5 -3 9 1 9 9 0 17 -3 19 -12 6z"/>
<path d="M10376 3573 c-6 -14 -5 -15 5 -6 7 7 10 15 7 18 -3 3 -9 -2 -12 -12z"/>
<path d="M2074 3554 c-10 -8 -13 -12 -5 -8 7 3 17 0 22 -7 6 -10 8 -7 6 9 0
12 -2 22 -2 22 -1 0 -10 -7 -21 -16z"/>
<path d="M12549 3536 c-9 -19 -9 -19 4 -4 8 10 16 15 19 12 4 -3 8 -1 12 4 3
5 -2 9 -10 9 -8 0 -20 -10 -25 -21z"/>
<path d="M10357 3533 c-2 -5 -3 -15 -2 -23 0 -8 -4 -18 -10 -22 -6 -5 -3 -8 6
-8 12 0 16 8 15 30 -1 31 -2 35 -9 23z"/>
<path d="M4276 3457 c3 -10 9 -15 12 -12 3 3 0 11 -7 18 -10 9 -11 8 -5 -6z"/>
<path d="M10320 3440 c-6 -11 -7 -19 -1 -18 5 2 8 -1 8 -7 -1 -5 -5 -9 -9 -8
-9 3 -4 -25 7 -34 4 -4 5 -3 1 4 -3 6 2 16 11 22 14 8 16 12 6 22 -16 16 -17
33 -1 23 7 -4 8 -3 4 4 -10 16 -14 15 -26 -8z"/>
<path d="M4336 3437 c3 -10 9 -15 12 -12 3 3 0 11 -7 18 -10 9 -11 8 -5 -6z"/>
<path d="M10299 3363 c8 -15 8 -24 1 -28 -6 -4 -8 -10 -5 -15 3 -5 -5 -16 -17
-24 -12 -9 -18 -16 -12 -16 6 0 19 9 29 20 10 11 15 20 10 20 -4 0 -2 6 4 13
8 10 7 19 -5 33 -14 18 -15 18 -5 -3z"/>
<path d="M4376 3317 c3 -10 9 -15 12 -12 3 3 0 11 -7 18 -10 9 -11 8 -5 -6z"/>
<path d="M4367 3266 c-4 -10 -1 -13 9 -9 7 3 14 9 14 14 0 14 -17 10 -23 -5z"/>
<path d="M10240 3270 c8 -5 20 -10 25 -10 6 0 3 5 -5 10 -8 5 -19 10 -25 10
-5 0 -3 -5 5 -10z"/>
<path d="M10218 3198 c5 -5 16 -8 23 -6 8 3 3 7 -10 11 -17 4 -21 3 -13 -5z"/>
<path d="M10215 3170 c3 -5 8 -10 11 -10 2 0 4 5 4 10 0 6 -5 10 -11 10 -5 0
-7 -4 -4 -10z"/>
<path d="M10180 3149 c0 -4 7 -10 16 -13 9 -3 12 -11 8 -18 -4 -9 -2 -8 7 1
11 10 11 15 1 18 -6 3 -10 8 -8 12 3 4 -1 8 -9 8 -8 0 -15 -4 -15 -8z"/>
<path d="M4470 3126 c0 -2 8 -10 18 -17 15 -13 16 -12 3 4 -13 16 -21 21 -21
13z"/>
<path d="M4445 3109 c-4 -6 -4 -13 -1 -16 3 -4 6 -1 6 6 0 7 5 9 12 5 7 -4 8
-3 4 4 -9 15 -13 15 -21 1z"/>
<path d="M10146 3092 c-3 -5 1 -9 9 -9 8 0 15 4 15 9 0 4 -4 8 -9 8 -6 0 -12
-4 -15 -8z"/>
<path d="M4468 3083 c7 -3 16 -2 19 1 4 3 -2 6 -13 5 -11 0 -14 -3 -6 -6z"/>
<path d="M4495 3050 c3 -5 8 -10 11 -10 2 0 4 5 4 10 0 6 -5 10 -11 10 -5 0
-7 -4 -4 -10z"/>
<path d="M10147 3045 c3 -8 9 -12 14 -9 12 7 11 11 -5 17 -10 4 -13 1 -9 -8z"/>
<path d="M10118 3027 c-3 -19 -2 -25 4 -19 6 6 8 18 6 28 -3 14 -5 12 -10 -9z"/>
<path d="M4530 3010 c0 -5 5 -10 11 -10 5 0 7 5 4 10 -3 6 -8 10 -11 10 -2 0
-4 -4 -4 -10z"/>
<path d="M4513 2983 c1 -18 6 -28 10 -24 4 4 3 18 -2 32 -9 23 -9 22 -8 -8z"/>
<path d="M4540 2956 c0 -2 7 -9 15 -16 13 -11 14 -10 9 4 -5 14 -24 23 -24 12z"/>
<path d="M4556 2891 c-3 -5 1 -11 9 -14 9 -4 12 -1 8 9 -6 16 -10 17 -17 5z"/>
<path d="M10075 2889 c-4 -6 -5 -12 -2 -15 2 -3 7 2 10 11 7 17 1 20 -8 4z"/>
<path d="M4597 2883 c-10 -9 -9 -23 1 -23 5 0 9 7 9 15 0 17 -1 18 -10 8z"/>
<path d="M10042 2850 c-9 -15 -9 -21 1 -26 6 -4 9 -4 5 1 -4 4 -3 14 4 22 6 7
9 15 7 18 -3 2 -10 -4 -17 -15z"/>
<path d="M4632 2796 c7 -8 15 -12 17 -11 5 6 -10 25 -20 25 -5 0 -4 -6 3 -14z"/>
<path d="M9997 2785 c-4 -8 -3 -16 1 -19 4 -3 9 4 9 15 2 23 -3 25 -10 4z"/>
<path d="M4660 2756 c0 -2 8 -10 18 -17 15 -13 16 -12 3 4 -13 16 -21 21 -21
13z"/>
<path d="M9947 2749 c7 -9 10 -19 6 -22 -3 -4 -1 -7 5 -7 17 0 15 16 -5 31
-16 12 -17 12 -6 -2z"/>
<path d="M9933 2708 c6 -17 -15 -43 -25 -32 -3 3 -8 1 -11 -3 -7 -11 48 -11
59 0 5 4 0 5 -11 1 -17 -7 -18 -5 -8 7 8 10 9 19 1 29 -8 13 -9 12 -5 -2z"/>
<path d="M4710 2690 c0 -5 5 -10 11 -10 5 0 7 5 4 10 -3 6 -8 10 -11 10 -2 0
-4 -4 -4 -10z"/>
<path d="M9882 2634 c10 -10 20 -16 22 -13 3 3 -5 11 -17 18 -21 13 -21 12 -5
-5z"/>
<path d="M4720 2633 c0 -9 40 -36 45 -31 2 2 -8 11 -21 21 -13 10 -24 14 -24
10z"/>
<path d="M4765 2630 c-3 -6 1 -7 9 -4 18 7 21 14 7 14 -6 0 -13 -4 -16 -10z"/>
<path d="M4793 2555 c0 -8 4 -12 9 -9 5 3 6 10 3 15 -9 13 -12 11 -12 -6z"/>
<path d="M9817 2541 c-4 -17 -3 -21 5 -13 5 5 8 16 6 23 -3 8 -7 3 -11 -10z"/>
<path d="M4817 2529 c7 -7 15 -10 18 -7 3 3 -2 9 -12 12 -14 6 -15 5 -6 -5z"/>
<path d="M9776 2508 c3 -5 10 -6 15 -3 13 9 11 12 -6 12 -8 0 -12 -4 -9 -9z"/>
<path d="M4865 2469 c-4 -6 -5 -12 -2 -15 2 -3 7 2 10 11 7 17 1 20 -8 4z"/>
<path d="M9775 2450 c6 -9 2 -10 -16 -5 -13 4 -22 6 -19 3 34 -27 38 -28 43
-14 4 9 1 18 -5 22 -7 5 -8 2 -3 -6z"/>
<path d="M4891 2438 c-1 -10 -6 -18 -12 -18 -5 0 -7 5 -3 12 4 7 3 8 -5 4 -9
-6 -9 -11 0 -23 11 -12 14 -12 21 2 5 9 7 21 4 28 -2 7 -5 4 -5 -5z"/>
<path d="M9695 2410 c-3 -5 -1 -10 4 -10 6 0 11 5 11 10 0 6 -2 10 -4 10 -3 0
-8 -4 -11 -10z"/>
<path d="M4900 2393 c0 -5 4 -14 9 -21 7 -11 9 -11 14 1 3 8 3 18 0 21 -9 8
-23 7 -23 -1z"/>
<path d="M9700 2381 c0 -6 4 -13 10 -16 6 -3 7 1 4 9 -7 18 -14 21 -14 7z"/>
<path d="M4970 2375 c0 -5 5 -17 10 -25 5 -8 10 -10 10 -5 0 6 -5 17 -10 25
-5 8 -10 11 -10 5z"/>
<path d="M9674 2344 c17 -12 21 -25 9 -23 -5 1 -15 1 -23 0 -13 -1 -13 -2 0
-11 18 -11 39 5 37 29 0 9 -9 17 -20 17 -16 0 -17 -2 -3 -12z"/>
<path d="M9635 2289 c-4 -6 -4 -13 -1 -16 3 -3 0 -13 -7 -22 -11 -14 -10 -14
5 -2 10 7 15 18 12 23 -4 6 0 14 7 19 9 6 10 9 2 9 -6 0 -15 -5 -18 -11z"/>
<path d="M5027 2263 c3 -7 9 -10 14 -7 14 8 11 21 -5 21 -8 0 -12 -6 -9 -14z"/>
<path d="M5000 2263 c0 -6 8 -17 18 -24 16 -13 16 -13 2 6 -8 11 -16 22 -17
24 -2 2 -3 0 -3 -6z"/>
<path d="M9560 2230 c8 -5 20 -10 25 -10 6 0 3 5 -5 10 -8 5 -19 10 -25 10 -5
0 -3 -5 5 -10z"/>
<path d="M5063 2210 c2 -8 12 -16 23 -17 13 -2 15 -1 4 4 -8 3 -19 11 -23 17
-6 7 -7 6 -4 -4z"/>
<path d="M5075 2170 c3 -5 8 -10 11 -10 2 0 4 5 4 10 0 6 -5 10 -11 10 -5 0
-7 -4 -4 -10z"/>
<path d="M5235 2121 c-3 -5 -2 -12 3 -15 5 -3 9 1 9 9 0 17 -3 19 -12 6z"/>
<path d="M9460 2108 c0 -4 7 -8 15 -8 8 0 15 4 15 8 0 5 -7 9 -15 9 -8 0 -15
-4 -15 -9z"/>
<path d="M5195 2070 c-4 -6 -12 -7 -18 -4 -7 4 -9 3 -4 -1 4 -5 18 -10 30 -11
12 -2 16 0 9 2 -6 3 -10 10 -6 15 3 5 3 9 0 9 -3 0 -8 -5 -11 -10z"/>
<path d="M5227 2069 c7 -7 15 -10 18 -7 3 3 -2 9 -12 12 -14 6 -15 5 -6 -5z"/>
<path d="M9424 2069 c-3 -6 -2 -15 4 -21 6 -6 12 -6 17 3 5 8 4 10 -3 5 -7 -4
-12 -3 -12 3 0 5 6 12 13 14 9 4 9 6 0 6 -6 1 -15 -4 -19 -10z"/>
<path d="M9403 2037 c18 -15 7 -34 -13 -22 -6 3 -7 -1 -4 -10 6 -14 8 -14 25
1 24 21 24 21 -3 34 -21 10 -22 10 -5 -3z"/>
<path d="M5221 2023 c7 -10 14 -19 14 -20 0 -1 7 8 14 20 13 20 13 21 -2 8
-11 -9 -17 -10 -17 -2 0 6 -5 11 -11 11 -8 0 -7 -6 2 -17z"/>
<path d="M9335 2009 c-3 -4 2 -6 10 -5 21 3 28 13 10 13 -9 0 -18 -4 -20 -8z"/>
<path d="M9360 1990 c-9 -6 -10 -10 -3 -10 6 0 15 5 18 10 8 12 4 12 -15 0z"/>
<path d="M5316 1952 c-3 -5 1 -9 9 -9 8 0 12 4 9 9 -3 4 -7 8 -9 8 -2 0 -6 -4
-9 -8z"/>
<path d="M9318 1943 c7 -3 16 -2 19 1 4 3 -2 6 -13 5 -11 0 -14 -3 -6 -6z"/>
<path d="M9282 1933 c-6 -2 -9 -10 -5 -16 4 -6 0 -8 -9 -5 -8 4 -15 0 -15 -7
0 -10 5 -11 19 -4 10 5 18 14 18 20 0 6 5 7 12 3 7 -4 8 -3 4 4 -4 7 -8 12 -9
11 -1 0 -8 -3 -15 -6z"/>
<path d="M5376 1903 c-6 -14 -5 -15 5 -6 7 7 10 15 7 18 -3 3 -9 -2 -12 -12z"/>
<path d="M5340 1901 c0 -6 4 -13 10 -16 6 -3 7 1 4 9 -7 18 -14 21 -14 7z"/>
<path d="M9286 1895 c-11 -8 -15 -15 -9 -15 6 0 16 7 23 15 16 19 11 19 -14 0z"/>
<path d="M5395 1870 c26 -11 35 -12 35 -2 0 4 -12 8 -27 9 -24 1 -25 1 -8 -7z"/>
<path d="M5406 1836 c6 -15 44 -39 44 -27 0 5 -7 12 -16 15 -8 3 -13 10 -10
14 3 5 -1 9 -8 9 -8 0 -12 -5 -10 -11z"/>
<path d="M9155 1830 c-3 -5 -1 -10 4 -10 6 0 11 5 11 10 0 6 -2 10 -4 10 -3 0
-8 -4 -11 -10z"/>
<path d="M5490 1806 c0 -2 8 -10 18 -17 15 -13 16 -12 3 4 -13 16 -21 21 -21
13z"/>
<path d="M5516 1771 c-18 -7 -18 -8 -3 -14 9 -3 17 -2 17 4 0 6 5 7 12 3 7 -4
8 -3 4 4 -4 7 -8 12 -9 11 -1 0 -11 -4 -21 -8z"/>
<path d="M9096 1772 c-2 -4 2 -15 9 -25 7 -10 16 -14 19 -9 3 6 -1 13 -10 16
-8 3 -12 10 -9 16 3 5 4 10 1 10 -3 0 -7 -3 -10 -8z"/>
<path d="M9141 1771 c-7 -5 -9 -11 -5 -14 5 -3 15 1 22 9 14 16 5 18 -17 5z"/>
<path d="M9040 1750 c-9 -6 -10 -10 -3 -10 6 0 15 5 18 10 8 12 4 12 -15 0z"/>
<path d="M5526 1731 c-3 -5 1 -11 9 -14 9 -4 12 -1 8 9 -6 16 -10 17 -17 5z"/>
<path d="M9074 1717 c1 -24 2 -25 14 -10 6 9 12 22 12 27 0 6 -4 5 -9 -3 -7
-11 -9 -11 -14 0 -2 8 -4 2 -3 -14z"/>
<path d="M5616 1703 c-6 -14 -5 -15 5 -6 7 7 10 15 7 18 -3 3 -9 -2 -12 -12z"/>
<path d="M9030 1710 c0 -6 4 -9 9 -6 5 4 12 1 14 -4 3 -6 4 -5 3 2 -3 15 -26
23 -26 8z"/>
<path d="M5587 1685 c-4 -8 -3 -16 1 -19 4 -3 9 4 9 15 2 23 -3 25 -10 4z"/>
<path d="M9035 1680 c6 -10 4 -12 -11 -6 -15 6 -17 5 -6 -5 9 -9 15 -10 23 -2
8 8 7 13 -2 18 -8 6 -10 4 -4 -5z"/>
<path d="M8973 1661 c0 -11 5 -18 9 -15 4 3 5 11 1 19 -7 21 -12 19 -10 -4z"/>
<path d="M5630 1661 c0 -6 4 -13 10 -16 6 -3 7 1 4 9 -7 18 -14 21 -14 7z"/>
<path d="M8963 1618 c3 -9 1 -19 -6 -21 -7 -2 -9 -7 -6 -11 12 -13 28 19 17
34 -8 13 -9 12 -5 -2z"/>
<path d="M5730 1611 c0 -6 4 -13 10 -16 6 -3 7 1 4 9 -7 18 -14 21 -14 7z"/>
<path d="M8925 1610 c-16 -7 -17 -9 -3 -9 9 -1 20 4 23 9 7 11 7 11 -20 0z"/>
<path d="M5776 1592 c-3 -5 1 -9 9 -9 8 0 12 4 9 9 -3 4 -7 8 -9 8 -2 0 -6 -4
-9 -8z"/>
<path d="M5754 1563 c21 -25 36 -30 36 -11 0 6 -3 8 -7 5 -3 -4 -16 1 -27 10
-21 18 -21 18 -2 -4z"/>
<path d="M8870 1570 c-9 -6 -10 -10 -3 -10 6 0 15 5 18 10 8 12 4 12 -15 0z"/>
<path d="M8859 1538 c0 -2 -2 -11 -4 -21 -3 -15 -1 -16 11 -6 7 6 11 15 8 20
-5 9 -13 12 -15 7z"/>
<path d="M5830 1526 c0 -2 8 -10 18 -17 15 -13 16 -12 3 4 -13 16 -21 21 -21
13z"/>
<path d="M5885 1510 c-3 -6 1 -7 9 -4 18 7 21 14 7 14 -6 0 -13 -4 -16 -10z"/>
<path d="M8800 1502 c0 -6 -8 -9 -17 -6 -15 5 -16 4 -3 -5 16 -11 40 3 27 16
-4 3 -7 1 -7 -5z"/>
<path d="M4742 1461 c6 -11 16 -17 21 -14 5 3 6 -5 2 -18 -5 -19 -4 -21 4 -9
15 22 14 26 -14 44 -25 16 -25 16 -13 -3z"/>
<path d="M8753 1464 c0 -7 5 -10 10 -7 7 4 8 -1 3 -13 -5 -12 -4 -16 3 -9 17
17 17 37 0 40 -9 2 -16 -3 -16 -11z"/>
<path d="M4710 1466 c0 -2 8 -10 18 -17 15 -13 16 -12 3 4 -13 16 -21 21 -21
13z"/>
<path d="M8695 1451 c-3 -5 -2 -12 3 -15 5 -3 9 1 9 9 0 17 -3 19 -12 6z"/>
<path d="M9894 1452 c3 -5 0 -13 -6 -15 -9 -4 -10 -6 -1 -6 17 -1 25 16 12 25
-7 4 -9 3 -5 -4z"/>
<path d="M8725 1430 c-3 -6 1 -7 9 -4 18 7 21 14 7 14 -6 0 -13 -4 -16 -10z"/>
<path d="M9797 1412 c-10 -10 -17 -23 -17 -28 0 -4 7 2 16 14 9 14 22 21 31
18 8 -3 11 -1 8 4 -9 15 -20 12 -38 -8z"/>
<path d="M9874 1398 l-19 -23 23 19 c21 18 27 26 19 26 -2 0 -12 -10 -23 -22z"/>
<path d="M5971 1395 c0 -16 25 -45 32 -38 11 10 8 25 -2 18 -6 -3 -14 3 -20
12 -6 10 -10 14 -10 8z"/>
<path d="M8675 1390 c3 -5 8 -10 11 -10 2 0 4 5 4 10 0 6 -5 10 -11 10 -5 0
-7 -4 -4 -10z"/>
<path d="M9813 1385 c0 -8 4 -12 9 -9 4 3 8 9 8 15 0 5 -4 9 -8 9 -5 0 -9 -7
-9 -15z"/>
<path d="M6032 1375 c4 -4 4 -13 -1 -19 -6 -7 -4 -21 4 -36 8 -14 14 -20 14
-15 1 6 -3 17 -9 25 -5 9 -5 19 1 26 7 8 6 15 -3 20 -7 4 -10 4 -6 -1z"/>
<path d="M6070 1366 c7 -7 13 -7 20 0 6 6 3 10 -10 10 -13 0 -16 -4 -10 -10z"/>
<path d="M8622 1350 c0 -14 2 -19 5 -12 2 6 2 18 0 25 -3 6 -5 1 -5 -13z"/>
<path d="M4931 1347 c2 -1 11 -8 21 -15 12 -10 18 -10 24 -1 4 7 3 9 -4 5 -6
-3 -13 -2 -17 4 -3 5 -11 10 -17 10 -6 0 -9 -1 -7 -3z"/>
<path d="M9666 1331 c-10 -11 -16 -26 -13 -33 4 -10 6 -10 6 1 1 8 8 23 18 33
9 10 14 18 11 18 -3 0 -13 -9 -22 -19z"/>
<path d="M9701 1336 c-9 -11 -9 -16 1 -22 7 -4 10 -4 6 1 -4 4 -3 14 3 22 6 7
9 13 6 13 -2 0 -10 -6 -16 -14z"/>
<path d="M4856 1323 c-6 -14 -5 -15 5 -6 7 7 10 15 7 18 -3 3 -9 -2 -12 -12z"/>
<path d="M6054 1332 c4 -3 14 -7 22 -8 9 -1 13 0 10 4 -4 3 -14 7 -22 8 -9 1
-13 0 -10 -4z"/>
<path d="M8590 1330 c-13 -8 -12 -10 3 -10 9 0 17 5 17 10 0 12 -1 12 -20 0z"/>
<path d="M4934 1310 c0 -13 4 -16 10 -10 7 7 7 13 0 20 -6 6 -10 3 -10 -10z"/>
<path d="M8528 1309 c10 -13 10 -18 -1 -28 -8 -6 -18 -7 -22 -3 -5 4 -5 1 -1
-5 10 -18 19 -16 33 6 10 16 9 22 -5 33 -15 11 -16 11 -4 -3z"/>
<path d="M8555 1310 c3 -5 8 -10 11 -10 2 0 4 5 4 10 0 6 -5 10 -11 10 -5 0
-7 -4 -4 -10z"/>
<path d="M9625 1309 c-4 -6 -5 -12 -2 -15 2 -3 7 2 10 11 7 17 1 20 -8 4z"/>
<path d="M6115 1301 c-3 -5 -2 -12 3 -15 5 -3 9 1 9 9 0 17 -3 19 -12 6z"/>
<path d="M9676 1297 c3 -10 9 -15 12 -12 3 3 0 11 -7 18 -10 9 -11 8 -5 -6z"/>
<path d="M6075 1290 c-3 -6 1 -7 9 -4 18 7 21 14 7 14 -6 0 -13 -4 -16 -10z"/>
<path d="M9583 1293 c-7 -2 -13 -9 -13 -15 0 -7 5 -7 13 1 8 6 17 8 20 4 4 -3
7 -1 7 5 0 13 -7 14 -27 5z"/>
<path d="M9541 1266 c-9 -11 -9 -16 0 -22 7 -4 9 -3 5 4 -3 5 0 12 6 15 7 2
10 7 7 11 -3 4 -12 0 -18 -8z"/>
<path d="M9620 1270 c-9 -6 -10 -10 -3 -10 6 0 15 5 18 10 8 12 4 12 -15 0z"/>
<path d="M8430 1256 c0 -2 7 -7 16 -10 8 -3 12 -2 9 4 -6 10 -25 14 -25 6z"/>
<path d="M8490 1250 c8 -5 13 -10 10 -11 -34 -6 -43 -8 -48 -13 -8 -9 30 -2
46 7 14 9 7 27 -11 27 -7 0 -6 -4 3 -10z"/>
<path d="M9510 1251 c0 -6 4 -13 10 -16 6 -3 7 1 4 9 -7 18 -14 21 -14 7z"/>
<path d="M6153 1235 c0 -6 8 -12 17 -12 9 -1 17 4 17 11 0 6 -8 12 -17 12 -9
0 -17 -5 -17 -11z"/>
<path d="M5136 1231 c-4 -5 3 -7 14 -4 23 6 26 13 6 13 -8 0 -17 -4 -20 -9z"/>
<path d="M9455 1219 c-4 -6 -5 -12 -2 -15 2 -3 7 2 10 11 7 17 1 20 -8 4z"/>
<path d="M5206 1198 c10 -14 21 -24 23 -22 3 3 -6 15 -18 27 l-24 22 19 -27z"/>
<path d="M6210 1216 c0 -3 9 -10 20 -16 11 -6 20 -8 20 -6 0 3 -9 10 -20 16
-11 6 -20 8 -20 6z"/>
<path d="M9473 1204 c-3 -8 -2 -19 3 -24 5 -5 9 1 9 16 0 28 -3 30 -12 8z"/>
<path d="M6260 1196 c0 -2 8 -10 18 -17 15 -13 16 -12 3 4 -13 16 -21 21 -21
13z"/>
<path d="M8370 1176 c0 -2 6 -9 14 -15 11 -9 16 -9 22 0 4 8 3 9 -4 5 -7 -4
-12 -2 -12 3 0 6 -4 11 -10 11 -5 0 -10 -2 -10 -4z"/>
<path d="M5216 1152 c-3 -5 1 -9 9 -9 8 0 12 4 9 9 -3 4 -7 8 -9 8 -2 0 -6 -4
-9 -8z"/>
<path d="M6296 1151 c8 -8 43 -8 38 0 -2 4 -13 7 -24 6 -10 -1 -17 -3 -14 -6z"/>
<path d="M9350 1150 c0 -5 5 -10 10 -10 6 0 10 5 10 10 0 6 -4 10 -10 10 -5 0
-10 -4 -10 -10z"/>
<path d="M9396 1152 c-3 -5 1 -9 9 -9 8 0 12 4 9 9 -3 4 -7 8 -9 8 -2 0 -6 -4
-9 -8z"/>
<path d="M5318 1143 c7 -3 16 -2 19 1 4 3 -2 6 -13 5 -11 0 -14 -3 -6 -6z"/>
<path d="M5279 1123 c-12 -16 -12 -17 2 -6 9 7 20 9 24 5 5 -4 5 -1 1 6 -9 16
-11 15 -27 -5z"/>
<path d="M5365 1120 c-3 -5 0 -7 8 -4 8 3 18 -5 24 -17 8 -20 10 -21 16 -5 4
9 3 15 -2 12 -5 -3 -11 1 -15 9 -6 17 -22 20 -31 5z"/>
<path d="M9247 1109 c7 -7 15 -10 18 -7 3 3 -2 9 -12 12 -14 6 -15 5 -6 -5z"/>
<path d="M5373 1085 c0 -8 4 -12 9 -9 5 3 6 10 3 15 -9 13 -12 11 -12 -6z"/>
<path d="M8280 1091 c0 -7 -5 -9 -12 -5 -7 5 -8 3 -3 -5 5 -9 10 -10 18 -2 6
6 8 14 4 18 -4 3 -7 1 -7 -6z"/>
<path d="M9290 1089 c0 -5 5 -7 10 -4 6 3 10 8 10 11 0 2 -4 4 -10 4 -5 0 -10
-5 -10 -11z"/>
<path d="M5460 1070 c8 -5 20 -10 25 -10 6 0 3 5 -5 10 -8 5 -19 10 -25 10 -5
0 -3 -5 5 -10z"/>
<path d="M8203 1068 c-9 -16 -16 -54 -7 -46 3 3 7 14 8 23 1 9 9 21 17 26 9 5
10 9 2 9 -6 0 -15 -6 -20 -12z"/>
<path d="M9200 1075 c0 -2 6 -8 13 -14 10 -8 14 -7 14 2 0 8 -6 14 -14 14 -7
0 -13 -1 -13 -2z"/>
<path d="M5450 1050 c0 -5 5 -10 11 -10 5 0 7 5 4 10 -3 6 -8 10 -11 10 -2 0
-4 -4 -4 -10z"/>
<path d="M9110 1053 c0 -6 7 -16 15 -23 8 -7 12 -17 8 -23 -4 -6 -1 -7 6 -3 9
6 8 13 -6 29 -10 12 -19 24 -20 26 -2 2 -3 0 -3 -6z"/>
<path d="M5497 1039 c7 -7 15 -10 18 -7 3 3 -2 9 -12 12 -14 6 -15 5 -6 -5z"/>
<path d="M6446 998 c3 -5 10 -6 15 -3 13 9 11 12 -6 12 -8 0 -12 -4 -9 -9z"/>
<path d="M5680 969 c-7 -11 -10 -23 -7 -25 2 -2 9 7 15 21 14 30 7 33 -8 4z"/>
<path d="M6480 983 c8 -3 22 -11 30 -17 13 -10 13 -9 1 7 -7 9 -21 17 -30 16
-13 0 -14 -1 -1 -6z"/>
<path d="M6575 979 c-4 -6 -5 -12 -2 -15 2 -3 7 2 10 11 7 17 1 20 -8 4z"/>
<path d="M8073 975 c0 -8 4 -12 9 -9 5 3 6 10 3 15 -9 13 -12 11 -12 -6z"/>
<path d="M5620 976 c0 -2 7 -6 15 -10 8 -3 15 -1 15 4 0 6 -7 10 -15 10 -8 0
-15 -2 -15 -4z"/>
<path d="M8975 970 c-3 -6 1 -7 9 -4 18 7 21 14 7 14 -6 0 -13 -4 -16 -10z"/>
<path d="M5699 958 c-6 -21 -5 -37 2 -32 5 3 7 9 4 14 -3 4 1 11 7 13 10 4 10
6 1 6 -7 1 -13 0 -14 -1z"/>
<path d="M8080 950 c-9 -6 -10 -10 -3 -10 6 0 15 5 18 10 8 12 4 12 -15 0z"/>
<path d="M8876 943 c-6 -13 -9 -14 -15 -4 -7 10 -9 10 -14 -2 -3 -9 0 -14 9
-13 18 3 40 24 32 31 -3 3 -9 -2 -12 -12z"/>
<path d="M8900 945 c0 -8 2 -15 4 -15 2 0 6 7 10 15 3 8 1 15 -4 15 -6 0 -10
-7 -10 -15z"/>
<path d="M7995 939 c-4 -6 -5 -12 -2 -15 2 -3 7 2 10 11 7 17 1 20 -8 4z"/>
<path d="M6595 931 c-3 -5 -2 -12 3 -15 5 -3 9 1 9 9 0 17 -3 19 -12 6z"/>
<path d="M8035 931 c-3 -5 -2 -12 3 -15 5 -3 9 1 9 9 0 17 -3 19 -12 6z"/>
<path d="M5830 921 c0 -6 3 -11 8 -12 4 0 15 -2 25 -4 11 -2 16 0 12 3 -4 4
-10 7 -13 7 -4 0 -13 4 -19 8 -8 5 -13 4 -13 -2z"/>
<path d="M8069 923 c-1 -5 -1 -11 0 -15 0 -5 -3 -8 -9 -8 -5 0 -10 -5 -10 -12
0 -9 3 -9 12 0 11 11 20 42 12 42 -2 0 -5 -3 -5 -7z"/>
<path d="M8880 910 c-9 -6 -10 -10 -3 -10 6 0 15 5 18 10 8 12 4 12 -15 0z"/>
<path d="M8927 909 c7 -7 15 -10 18 -7 3 3 -2 9 -12 12 -14 6 -15 5 -6 -5z"/>
<path d="M5830 890 c0 -5 5 -10 11 -10 5 0 7 5 4 10 -3 6 -8 10 -11 10 -2 0
-4 -4 -4 -10z"/>
<path d="M6590 890 c0 -5 5 -10 10 -10 6 0 10 5 10 10 0 6 -4 10 -10 10 -5 0
-10 -4 -10 -10z"/>
<path d="M5870 886 c0 -2 7 -9 15 -16 9 -7 15 -8 15 -2 0 5 -7 12 -15 16 -8 3
-15 4 -15 2z"/>
<path d="M5924 872 c-9 -14 -8 -18 6 -18 11 0 15 6 12 18 -2 10 -5 18 -6 18
-1 0 -6 -8 -12 -18z"/>
<path d="M6615 871 c-3 -5 0 -13 6 -17 8 -5 9 -3 4 6 -6 10 -4 12 9 7 10 -4
15 -3 11 3 -8 13 -22 13 -30 1z"/>
<path d="M8867 869 c7 -7 15 -10 18 -7 3 3 -2 9 -12 12 -14 6 -15 5 -6 -5z"/>
<path d="M5983 857 c0 -7 9 -13 19 -13 10 0 18 1 18 3 0 1 -8 7 -18 12 -13 7
-19 6 -19 -2z"/>
<path d="M8647 861 c6 -7 9 -20 6 -27 -3 -8 -3 -14 0 -14 14 0 14 30 -1 41
-14 11 -15 11 -5 0z"/>
<path d="M8617 849 c7 -7 15 -10 18 -7 3 3 -2 9 -12 12 -14 6 -15 5 -6 -5z"/>
<path d="M6650 840 c-9 -6 -10 -10 -3 -10 6 0 15 5 18 10 8 12 4 12 -15 0z"/>
<path d="M8593 835 c0 -8 4 -15 9 -15 4 0 8 4 8 9 0 6 -4 12 -8 15 -5 3 -9 -1
-9 -9z"/>
<path d="M6030 832 c0 -6 9 -12 20 -15 11 -3 20 -3 20 -1 0 2 -9 8 -20 14 -11
6 -20 7 -20 2z"/>
<path d="M6084 825 c8 -8 18 -15 22 -15 3 0 1 7 -6 15 -7 8 -17 15 -22 15 -5
0 -3 -7 6 -15z"/>
<path d="M6677 825 c-4 -8 -3 -16 1 -19 4 -3 9 4 9 15 2 23 -3 25 -10 4z"/>
<path d="M8455 799 c-11 -16 -1 -19 13 -3 7 8 8 14 3 14 -5 0 -13 -5 -16 -11z"/>
<path d="M8506 793 c-6 -14 -5 -15 5 -6 7 7 10 15 7 18 -3 3 -9 -2 -12 -12z"/>
<path d="M6096 788 c3 -5 10 -6 15 -3 13 9 11 12 -6 12 -8 0 -12 -4 -9 -9z"/>
<path d="M6260 780 c-7 -4 -20 -6 -29 -3 -13 4 -14 3 -2 -5 10 -7 21 -7 32 -1
12 6 19 5 22 -4 4 -9 6 -9 6 0 1 17 -13 23 -29 13z"/>
<path d="M8386 782 c-2 -4 4 -8 14 -8 10 0 16 4 14 8 -3 4 -9 8 -14 8 -5 0
-11 -4 -14 -8z"/>
<path d="M6215 750 c3 -5 8 -10 11 -10 2 0 4 5 4 10 0 6 -5 10 -11 10 -5 0 -7
-4 -4 -10z"/>
<path d="M6260 756 c0 -2 8 -10 18 -17 15 -13 16 -12 3 4 -13 16 -21 21 -21
13z"/>
<path d="M6300 756 c0 -2 7 -7 16 -10 8 -3 12 -2 9 4 -6 10 -25 14 -25 6z"/>
<path d="M8336 744 c-5 -14 -4 -15 9 -4 17 14 19 20 6 20 -5 0 -12 -7 -15 -16z"/>
<path d="M8410 749 c0 -5 5 -7 10 -4 6 3 10 8 10 11 0 2 -4 4 -10 4 -5 0 -10
-5 -10 -11z"/>
<path d="M6410 735 c-14 -8 -20 -14 -14 -15 5 0 19 7 30 15 24 18 16 19 -16 0z"/>
<path d="M8270 746 c0 -2 8 -10 18 -17 15 -13 16 -12 3 4 -13 16 -21 21 -21
13z"/>
<path d="M6480 724 c0 -6 7 -19 16 -30 14 -18 14 -18 3 6 -14 31 -19 36 -19
24z"/>
<path d="M6519 713 c-13 -16 -12 -17 4 -4 9 7 17 15 17 17 0 8 -8 3 -21 -13z"/>
<path d="M8115 720 c-3 -5 -3 -10 2 -10 4 0 1 -5 -7 -11 -10 -7 -11 -9 -2 -7
8 2 13 7 12 12 -1 5 4 13 12 17 9 6 9 9 1 9 -6 0 -15 -4 -18 -10z"/>
<path d="M8149 713 c-13 -16 -12 -17 4 -4 16 13 21 21 13 21 -2 0 -10 -8 -17
-17z"/>
<path d="M6550 705 c0 -8 2 -15 4 -15 2 0 6 7 10 15 3 8 1 15 -4 15 -6 0 -10
-7 -10 -15z"/>
<path d="M8066 708 c3 -4 9 -8 15 -8 5 0 9 4 9 8 0 5 -7 9 -15 9 -8 0 -12 -4
-9 -9z"/>
<path d="M8037 699 c7 -7 15 -10 18 -7 3 3 -2 9 -12 12 -14 6 -15 5 -6 -5z"/>
<path d="M7975 671 c-3 -5 -2 -12 3 -15 5 -3 9 1 9 9 0 17 -3 19 -12 6z"/>
</g>
</svg>
